<?xml version="1.0" encoding="utf-8"?>
<!-- Generator: Adobe Illustrator 16.0.4, SVG Export Plug-In . SVG Version: 6.00 Build 0)  -->
<!DOCTYPE svg PUBLIC "-//W3C//DTD SVG 1.1//EN" "http://www.w3.org/Graphics/SVG/1.1/DTD/svg11.dtd">
<svg version="1.1" id="Layer_1" xmlns="http://www.w3.org/2000/svg" xmlns:xlink="http://www.w3.org/1999/xlink" x="0px" y="0px"
	 width="850px" height="550px" viewBox="0 0 850 550" enable-background="new 0 0 850 550" xml:space="preserve">
<linearGradient id="SVGID_1_" gradientUnits="userSpaceOnUse" x1="425.0054" y1="356.2598" x2="425.0054" y2="541.8492">
	<stop  offset="0" style="stop-color:#5C7E6F"/>
	<stop  offset="0.5" style="stop-color:#AA6B00"/>
	<stop  offset="1" style="stop-color:#422A00"/>
</linearGradient>
<rect x="0.011" y="341.812" fill="url(#SVGID_1_)" width="849.989" height="208.188"/>
<linearGradient id="SVGID_2_" gradientUnits="userSpaceOnUse" x1="424.8833" y1="229.0034" x2="424.8833" y2="0.5385">
	<stop  offset="0.0056" style="stop-color:#BCD7DD"/>
	<stop  offset="0.2384" style="stop-color:#BED8DE"/>
	<stop  offset="0.3617" style="stop-color:#C6DCE2"/>
	<stop  offset="0.4593" style="stop-color:#D4E4E8"/>
	<stop  offset="0.4719" style="stop-color:#D6E5E9"/>
	<stop  offset="0.476" style="stop-color:#D4E4E9"/>
	<stop  offset="0.5471" style="stop-color:#BAD7E2"/>
	<stop  offset="0.625" style="stop-color:#A6CDDD"/>
	<stop  offset="0.7136" style="stop-color:#98C6DA"/>
	<stop  offset="0.8212" style="stop-color:#90C2D8"/>
	<stop  offset="1" style="stop-color:#8DC1D7"/>
</linearGradient>
<rect x="0.011" fill="url(#SVGID_2_)" width="849.745" height="243.733"/>
<path fill="#63BE6A" d="M0.011,134.294c0,0,89-8.723,245.195,13.13c0,0,44.48-14.738,116.889-1.524
	c72.41,13.214,114.821,36.084,215.158,17.28c100.338-18.804,206.757-38.625,272.503-22.362v98.597H0.011V134.294z"/>
<linearGradient id="SVGID_3_" gradientUnits="userSpaceOnUse" x1="-0.3755" y1="297.9932" x2="850" y2="297.9932">
	<stop  offset="0" style="stop-color:#0096BB"/>
	<stop  offset="0.0556" style="stop-color:#0899BD"/>
	<stop  offset="0.1438" style="stop-color:#1FA1C2"/>
	<stop  offset="0.2534" style="stop-color:#45AFCB"/>
	<stop  offset="0.379" style="stop-color:#78C1D7"/>
	<stop  offset="0.5" style="stop-color:#B0D5E4"/>
	<stop  offset="0.5113" style="stop-color:#A9D1E1"/>
	<stop  offset="0.6017" style="stop-color:#76B6C8"/>
	<stop  offset="0.6907" style="stop-color:#4C9FB4"/>
	<stop  offset="0.7766" style="stop-color:#2B8EA4"/>
	<stop  offset="0.8586" style="stop-color:#138199"/>
	<stop  offset="0.9349" style="stop-color:#057A92"/>
	<stop  offset="1" style="stop-color:#007790"/>
</linearGradient>
<path fill="url(#SVGID_3_)" d="M-0.375,220.224c0,0,71.66-18.197,223.769,1.26c152.11,19.458,445.417,24.929,626-20.214L850,376.987
	c0,0-41.649-18.87-152.913-5.674c-123.94,14.697-119.046-7.486-231.513-16.417c-128.066-10.169-211.815,39.146-324.781,39.807
	C45.206,395.261,0.646,378.218,0.646,378.218L-0.375,220.224z"/>
<path fill="#008837" d="M161.216,432.838c0.187,3.013,1.833,48.666,2,50.666s7.5,2.666,7.5,0.5s-3.087-49.833-3.182-52.16
	S161.072,430.512,161.216,432.838z"/>
<linearGradient id="SVGID_4_" gradientUnits="userSpaceOnUse" x1="127.9854" y1="305.6885" x2="147.2455" y2="296.9369">
	<stop  offset="0" style="stop-color:#00BE00"/>
	<stop  offset="1" style="stop-color:#005A37"/>
</linearGradient>
<path fill="url(#SVGID_4_)" d="M136.237,310.764c0,0,7.479-16.76,4.645-19.76c0,0-5.62,9.389-7.893,20.861L136.237,310.764z"/>
<g>
	<linearGradient id="SVGID_5_" gradientUnits="userSpaceOnUse" x1="177.8726" y1="385.459" x2="182.039" y2="351.1253">
		<stop  offset="0" style="stop-color:#00BE00"/>
		<stop  offset="1" style="stop-color:#005A37"/>
	</linearGradient>
	<path fill="url(#SVGID_5_)" d="M186.382,349.671c0,0-3.5,26.166-13.333,47.833c0,0,8.667-33.166,5-47.833H186.382z"/>
	<linearGradient id="SVGID_6_" gradientUnits="userSpaceOnUse" x1="162.1841" y1="380.5371" x2="192.351" y2="335.3705">
		<stop  offset="0" style="stop-color:#00BE00"/>
		<stop  offset="1" style="stop-color:#005A37"/>
	</linearGradient>
	<path fill="url(#SVGID_6_)" d="M163.382,383.671c0,0-0.667-17.833,14.667-34h8.333c0,0-16,14.167-22.333,36.667L163.382,383.671z"
		/>
</g>
<linearGradient id="SVGID_7_" gradientUnits="userSpaceOnUse" x1="158.9243" y1="399.8184" x2="167.5488" y2="399.8184">
	<stop  offset="0" style="stop-color:#00BE00"/>
	<stop  offset="1" style="stop-color:#005A37"/>
</linearGradient>
<path fill="url(#SVGID_7_)" d="M161.216,432.838c0,0-1-44.334-1-53.334s-3.333-7.334-0.333-14l5-0.666c0,0,3,2.332,2,6.666
	s-2,9.334-2,9.334s2.667,48.666,2.667,51.666S161.275,435.504,161.216,432.838z"/>
<linearGradient id="SVGID_8_" gradientUnits="userSpaceOnUse" x1="147.7051" y1="338.8115" x2="151.3716" y2="337.1455">
	<stop  offset="0" style="stop-color:#00BE00"/>
	<stop  offset="1" style="stop-color:#005A37"/>
</linearGradient>
<path fill="url(#SVGID_8_)" d="M163.9,364.969c0.528,1.08-4.018,2.201-4.018,0.535s-24.667-52.167-25.5-53.5s1.333-2.5,2.5-0.5
	S162.251,361.6,163.9,364.969z"/>
<linearGradient id="SVGID_9_" gradientUnits="userSpaceOnUse" x1="109.9609" y1="306.5498" x2="131.9738" y2="296.5474">
	<stop  offset="0" style="stop-color:#00BE00"/>
	<stop  offset="1" style="stop-color:#005A37"/>
</linearGradient>
<path fill="url(#SVGID_9_)" d="M105.549,292.004c0,0,8.833,18.5,28.833,20l1.855-1.24
	C136.237,310.764,121.382,306.838,105.549,292.004z"/>
<linearGradient id="SVGID_10_" gradientUnits="userSpaceOnUse" x1="-69.1758" y1="288.6123" x2="-71.0396" y2="569.6313" gradientTransform="matrix(0.4754 0 0 0.4754 88.9212 278.0447)">
	<stop  offset="0" style="stop-color:#00BE00"/>
	<stop  offset="1" style="stop-color:#005A37"/>
</linearGradient>
<path fill="url(#SVGID_10_)" d="M46.614,548.952c0,0,7.844-43.379,11.112-75.861c3.268-32.483-11.233-70.576-11.233-70.576
	s6.213,1.477,11.823,20.966c5.611,19.489,8.859,29.234,5.906,60.832c-2.776,29.701-10.51,64.64-10.51,64.64H46.614z"/>
<g>
	
		<linearGradient id="SVGID_11_" gradientUnits="userSpaceOnUse" x1="125.9702" y1="498.7969" x2="127.8336" y2="371.4656" gradientTransform="matrix(0.4754 0 0 0.4754 113.7258 278.0447)">
		<stop  offset="0" style="stop-color:#00BE00"/>
		<stop  offset="1" style="stop-color:#005A37"/>
	</linearGradient>
	<path fill="url(#SVGID_11_)" d="M186.067,451.031c0,0-5.906,28.645-16.832,52.858c0,0-6.497-36.026-6.202-52.858H186.067z"/>
	
		<linearGradient id="SVGID_12_" gradientUnits="userSpaceOnUse" x1="74.9009" y1="360.7959" x2="73.531" y2="567.3363" gradientTransform="matrix(0.4754 0 0 0.4754 113.7883 277.8835)">
		<stop  offset="0" style="stop-color:#00BE00"/>
		<stop  offset="1" style="stop-color:#005A37"/>
	</linearGradient>
	<path fill="url(#SVGID_12_)" d="M112.009,546.678c0,0,14.47-71.888,51.087-95.808h23.034c0,0-50.792,35.106-62.604,95.808H112.009z
		"/>
</g>
<linearGradient id="SVGID_13_" gradientUnits="userSpaceOnUse" x1="144.7202" y1="353.5625" x2="124.387" y2="493.8961" gradientTransform="matrix(0.4754 0 0 0.4754 88.9212 278.0447)">
	<stop  offset="0" style="stop-color:#00BE00"/>
	<stop  offset="1" style="stop-color:#005A37"/>
</linearGradient>
<path fill="url(#SVGID_13_)" d="M153.042,549.407c0,0-19.402-25.624-14.647-65.72c4.754-40.095,23.613-47.544,23.613-47.544
	s-0.634,8.559-8.558,24.882s-15.78,54.58,3.238,88.382H153.042z"/>
<g>
	<linearGradient id="SVGID_14_" gradientUnits="userSpaceOnUse" x1="132.001" y1="430.8418" x2="97.8398" y2="394.8179">
		<stop  offset="0" style="stop-color:#00BE00"/>
		<stop  offset="1" style="stop-color:#005A37"/>
	</linearGradient>
	<path fill="url(#SVGID_14_)" d="M101.382,384.537c0.117,3.147,30.832,43.479,30.832,43.479s-36.462-13.665-55.096-43.479H101.382z"
		/>
	<linearGradient id="SVGID_15_" gradientUnits="userSpaceOnUse" x1="93.5693" y1="398.9492" x2="128.9732" y2="507.0234">
		<stop  offset="0" style="stop-color:#00BE00"/>
		<stop  offset="1" style="stop-color:#005A37"/>
	</linearGradient>
	<path fill="url(#SVGID_15_)" d="M163.454,549.407c0,0-58.925-58.038-62.071-164.87H77.118c0,0,6.833,111.106,73.292,164.87H163.454
		z"/>
</g>
<linearGradient id="SVGID_16_" gradientUnits="userSpaceOnUse" x1="116.2065" y1="482.8379" x2="116.2065" y2="549.4072">
	<stop  offset="0" style="stop-color:#00BE00"/>
	<stop  offset="1" style="stop-color:#005A37"/>
</linearGradient>
<path fill="url(#SVGID_16_)" d="M114.549,549.407c0,0-15.333-64.903,4.667-99.236c0,0,6.666,67.14,3.333,99.236H114.549z"/>
<linearGradient id="SVGID_17_" gradientUnits="userSpaceOnUse" x1="159.5815" y1="332.334" x2="139.2485" y2="472.6666">
	<stop  offset="0" style="stop-color:#00BE00"/>
	<stop  offset="1" style="stop-color:#005A37"/>
</linearGradient>
<path fill="url(#SVGID_17_)" d="M149.882,549.407c0,0-41-54.235-31-138.569s49.667-100,49.667-100s-1.333,18-18,52.333
	s-33,115.14,7,186.236H149.882z"/>
<linearGradient id="SVGID_18_" gradientUnits="userSpaceOnUse" x1="239.8174" y1="452.3242" x2="226.3234" y2="545.4554" gradientTransform="matrix(1 0 0 1 -91.375 0)">
	<stop  offset="0" style="stop-color:#00BE00"/>
	<stop  offset="1" style="stop-color:#005A37"/>
</linearGradient>
<path fill="url(#SVGID_18_)" d="M184.841,549.407c0,0-20.557-66.628-86.112-102.266c0,0,56.778,44.502,77.445,102.266H184.841z"/>
<linearGradient id="SVGID_19_" gradientUnits="userSpaceOnUse" x1="490.832" y1="451.1787" x2="477.3382" y2="544.3094" gradientTransform="matrix(-1 0 0 1 649.1758 0)">
	<stop  offset="0" style="stop-color:#00BE00"/>
	<stop  offset="1" style="stop-color:#005A37"/>
</linearGradient>
<path fill="url(#SVGID_19_)" d="M121.946,548.262c0,0,20.557-66.628,86.111-102.266c0,0-56.777,44.502-77.445,102.266H121.946z"/>
<linearGradient id="SVGID_20_" gradientUnits="userSpaceOnUse" x1="260.8701" y1="366.3867" x2="133.5411" y2="553.964" gradientTransform="matrix(0.4754 0 0 0.4754 89.1399 277.8835)">
	<stop  offset="0" style="stop-color:#00BE00"/>
	<stop  offset="1" style="stop-color:#005A37"/>
</linearGradient>
<path fill="url(#SVGID_20_)" d="M146.938,549.407c0,0,49.61-95.512,70.576-96.988c0,0-0.295,4.429-11.812,16.831
	c-11.517,12.403-54.631,80.157-54.631,80.157H146.938z"/>
<linearGradient id="SVGID_21_" gradientUnits="userSpaceOnUse" x1="504.2939" y1="445.46" x2="490.8" y2="538.5916" gradientTransform="matrix(-1.5571 0 0 1.5571 845.7654 -295.2722)">
	<stop  offset="0" style="stop-color:#00BE00"/>
	<stop  offset="1" style="stop-color:#005A37"/>
</linearGradient>
<path fill="url(#SVGID_21_)" d="M3.841,549.419c0,0,32.009-103.745,134.083-159.236c0,0-88.407,69.293-120.589,159.236H3.841z"/>
<linearGradient id="SVGID_22_" gradientUnits="userSpaceOnUse" x1="809.9199" y1="347.2656" x2="809.9199" y2="518.0733" gradientTransform="matrix(0.6064 0 0 0.6064 267.8151 208.7751)">
	<stop  offset="0" style="stop-color:#00BE00"/>
	<stop  offset="1" style="stop-color:#005A37"/>
</linearGradient>
<path fill="url(#SVGID_22_)" d="M738.145,548.262c0,0,7.742-37.076,25.234-77.377s-6.779-56.12-6.779-56.12
	s13.936,0.754,19.961,14.689c6.027,13.936,3.391,25.381-6.779,52.426c-10.168,27.045-21.092,50.353-23.729,66.382H738.145z"/>
<linearGradient id="SVGID_23_" gradientUnits="userSpaceOnUse" x1="504.7568" y1="462.8594" x2="491.2629" y2="555.9907" gradientTransform="matrix(0.6064 0 0 0.6064 397.7848 208.7751)">
	<stop  offset="0" style="stop-color:#00BE00"/>
	<stop  offset="1" style="stop-color:#005A37"/>
</linearGradient>
<path fill="url(#SVGID_23_)" d="M725.949,548.262c0,0-12.465-40.402-52.217-62.013c0,0,34.43,26.985,46.963,62.013H725.949z"/>
<linearGradient id="SVGID_24_" gradientUnits="userSpaceOnUse" x1="445.5" y1="449.2998" x2="432.0062" y2="542.4304" gradientTransform="matrix(0.9442 0 0 1.1162 283.6352 -61.28)">
	<stop  offset="0" style="stop-color:#00BE00"/>
	<stop  offset="1" style="stop-color:#005A37"/>
</linearGradient>
<path fill="url(#SVGID_24_)" d="M738.684,548.262c0,0-19.41-74.367-81.307-114.145c0,0,53.609,49.671,73.125,114.145H738.684z"/>
<path fill="#CC973D" d="M231.87,493.538c-1.258-0.449-2.755-0.423-4.031-0.389c-0.955,0.025-2.11,0.213-0.826,0.857
	c0.877,0.44,1.886,0.087,2.802,0.112c0.774,0.021,1.695,0.64,2.359,0.433L231.87,493.538z"/>
<path fill="#805000" d="M291.15,517.419c-0.461-0.371-2.66-0.943-3.331-0.942l0.813,0.469c-1.196-0.075-2.977-0.423-3.8,0.465
	c1.167,1.521,4.555,1.072,6.594,1.01C291.525,517.979,291.542,517.734,291.15,517.419z"/>
<path fill="#805000" d="M308.986,504.143c-1.526-0.012-3.195-0.158-4.684,0.009c-0.188-0.77-2.113-1.418-3.009-1.261
	c-0.845,0.147-1.802,1.145-0.982,1.727l-1.016-0.468c-0.967,0.336-1.284,1.456-0.582,2.007c0.599,0.468,2.845,0.617,2.82-0.283
	c1.484-0.046,2.964-0.095,4.442-0.164c0.896-0.041,1.682-0.187,2.56-0.28c0.76-0.081,2.461,0.252,3.028-0.167
	C312.732,504.397,309.604,504.147,308.986,504.143z"/>
<path fill="#664000" d="M304.676,485.033h-2.539c-1.315,0-2.677-0.062-3.809,0.227c-1.477,0.377-1.986,1.505,0.123,1.572
	c1.564,0.051,3.153,0.008,4.719-0.003c1.128-0.008,4.265,0.036,4.868-0.885C307.027,485.241,305.948,485.039,304.676,485.033z"/>
<path fill="#805000" d="M306.099,531.691l-3.96,0.391c-0.748,0-1.707-0.145-2.417,0c-0.564,0.115-0.429,0.155-0.857,0.3
	c-0.805,0.271-1.681,0.672-2.554,0.952c-0.974,0.313-2.821,1.219-0.747,1.899c1.271,0.417,2.556-0.293,3.699-0.273
	c0.529,0.01,1.158,0.313,1.845,0.32c1.608,0.019,2.98-0.066,4.535-0.289c1.165-0.166,3.901,0.099,4.49-0.768
	C311.427,532.313,307.745,531.697,306.099,531.691z"/>
<path fill="#805000" d="M350.856,545.268c-0.693-0.25-1.374-0.891-2.135-1.246c0.474-1.429-2.136-2.254-3.529-2.265l-1.828-0.391
	c-1.173-0.359-1.398-0.142-2.03,0.369c-0.137,0.11-0.097,0.396-0.289,0.503c-0.27,0.149-1.54-0.012-1.864-0.013
	c-1.273-0.005-2.424-0.003-3.498,0.563c-0.454,0.239-0.347,0.561-0.942,0.62c0.448,0.511,1.567-0.131,1.975,0.233
	c0.464,0.415-0.648,0.626-1.064,0.716c-1.025,0.22-3.813-0.198-3.344,1.21c1.685,0.473,3.379,0.874,5.173,0.87
	c2.155-0.005,4.281-0.229,6.516-0.234c1.63-0.004,3.188,0.17,4.802,0.354c0.975,0.111,3.634,0.5,4.411-0.24
	C354.296,545.285,351.575,545.527,350.856,545.268z"/>
<path fill="#805000" d="M349.457,520.065l-0.406,0.546c-0.48-0.082-0.954-0.021-1.129,0.323c0.684,0.614,3.642,0.557,3.979-0.327
	C352.427,519.229,350.187,519.97,349.457,520.065z"/>
<path fill="#664000" d="M377.178,496.736l-1.625-0.156c-0.909,0-1.837,0.013-2.673,0.113c-0.402,0.049-2.128,0.105-2.306,0.35
	c-0.662,0.902,3.224,1.059,4.079,1.183c0.907,0.132,4.24,0.966,4.614,0.068C379.509,497.712,377.694,496.987,377.178,496.736z"/>
<path fill="#AA6B00" d="M396.049,497.239c-0.975-0.85-2.259-0.873-3.233-0.113l-0.711,0.312c-0.147-0.048-0.274-0.027-0.379,0.062
	c0.121,0.513,0.234,0.916,0.858,1.173c0.996,0.409,3.039,0.453,4.119,0.309C399.275,498.637,397.923,496.991,396.049,497.239z"/>
<path fill="#805000" d="M377.146,528.01c-0.488-0.407-1.077-0.277-1.652-0.521l-1.625-0.468c-0.278,0.004-1.014-0.1-1.25-0.002
	c-0.384,0.157-0.478,0.611-0.839,0.788c-0.905,0.443-2.077,0.268-2.883,0.987c-0.719,0.643-0.506,1.243,0.886,1.614
	c0.98,0.262,2.362-0.206,3.558-0.146c1.186,0.061,4.349,0.408,4.491-0.825C377.867,529.13,377.394,528.217,377.146,528.01z"/>
<path fill="#805000" d="M411.745,526.475l-1.116,0.078c-1.116-0.021-2.326,0.023-3.335,0.436c-0.409,0.167-0.829,0.585-1.341,0.652
	c0.197,0.692,2.177,0.381,2.828,0.555c0.511,0.136,0.625,0.498,1.096,0.67c0.306,0.112,2.591-0.109,3.111-0.2
	C415.921,528.155,413.247,526.738,411.745,526.475z"/>
<path fill="#805000" d="M401.286,542.625l-1.625-0.779c-1.169,0.076-3.719,0.577-4.071,1.661c-0.453,1.397,2.022,1.535,3.176,1.537
	c1.036,0.002,2.031-0.014,2.595-0.718C401.819,543.759,401.694,543.087,401.286,542.625z"/>
<path fill="#805000" d="M452.158,542.157l-1.32,0.391c-0.753-0.063-1.746,0.241-1.823,0.865c0.814,0.221,1.503-0.217,2.245-0.179
	c0.521,0.025,1.045,0.26,1.543,0.366c0.582,0.123,2.962,0.539,2.812-0.471C454.425,542.728,452.803,542.972,452.158,542.157z"/>
<path fill="#805000" d="M446.067,532.872l-1.829,0.156c-0.792-0.027-1.648-0.029-2.348,0.298c-0.254,1.134,2.513,0.534,3.04,0.55
	c0.921,0.027,3.229,1.075,3.46-0.369C447.694,533.171,446.799,533.12,446.067,532.872z"/>
<path fill="#805000" d="M477.49,546.776c-0.911-0.674-2.595-0.397-3.625-0.142c-0.225,0.056-0.404,0.223-0.666,0.282
	c-0.367,0.082-0.737-0.062-1.113,0.076c-0.598,0.221-0.936,0.643-0.634,1.094l2.133,0.858c1.157,0,3.478,0.268,4.39-0.386
	C478.564,548.138,478.013,547.162,477.49,546.776z"/>
<path fill="#AA6B00" d="M507.297,529.596c-1.259-0.449-2.755-0.423-4.03-0.389c-0.956,0.025-2.111,0.213-0.826,0.857
	c0.877,0.44,1.886,0.087,2.801,0.112c0.774,0.021,1.695,0.64,2.359,0.433L507.297,529.596z"/>
<path fill="#AA6B00" d="M523.441,527.801l-1.218,0.078c-0.666,0-2.587-0.322-2.372,0.476c-0.417,0.08-0.959,0.398-0.896,0.772
	c0.132,0.797,1.44,0.535,1.921,0.406c0.869-0.231,2.976-0.159,3.394-0.629c0.14-0.01,0.252-0.011,0.385-0.038
	C524.557,528.424,523.86,528.097,523.441,527.801z"/>
<path fill="#805000" d="M455.055,512.767c-0.46-0.371-2.658-0.943-3.329-0.942l0.813,0.469c-1.197-0.075-2.977-0.423-3.801,0.465
	c1.167,1.521,4.556,1.072,6.594,1.01C455.432,513.326,455.448,513.082,455.055,512.767z"/>
<path fill="#805000" d="M429.141,517.591c-1.524-0.012-3.195-0.158-4.684,0.009c-0.188-0.77-2.112-1.418-3.01-1.261
	c-0.844,0.147-1.801,1.145-0.981,1.727l-1.017-0.468c-0.966,0.336-1.284,1.456-0.581,2.007c0.599,0.468,2.846,0.617,2.82-0.283
	c1.483-0.046,2.964-0.095,4.441-0.164c0.896-0.041,1.682-0.187,2.56-0.28c0.761-0.081,2.462,0.252,3.029-0.167
	C432.888,517.846,429.759,517.596,429.141,517.591z"/>
<path fill="#805000" d="M478.32,524.357l-3.96,0.391c-0.747,0-1.707-0.145-2.417,0c-0.564,0.115-0.43,0.155-0.858,0.3
	c-0.804,0.271-1.681,0.672-2.553,0.952c-0.975,0.313-2.821,1.219-0.747,1.899c1.271,0.417,2.554-0.293,3.698-0.273
	c0.528,0.01,1.157,0.313,1.845,0.32c1.606,0.019,2.979-0.066,4.535-0.289c1.164-0.166,3.901,0.099,4.488-0.768
	C483.648,524.979,479.968,524.363,478.32,524.357z"/>
<path fill="#805000" d="M554.562,534.335c-0.691-0.25-1.373-0.891-2.135-1.246c0.475-1.429-2.136-2.254-3.529-2.265l-1.827-0.391
	c-1.173-0.359-1.398-0.142-2.031,0.369c-0.136,0.11-0.097,0.396-0.288,0.503c-0.271,0.149-1.539-0.012-1.864-0.013
	c-1.273-0.005-2.425-0.003-3.498,0.563c-0.453,0.239-0.347,0.561-0.941,0.62c0.448,0.511,1.566-0.131,1.975,0.233
	c0.464,0.415-0.647,0.626-1.063,0.716c-1.025,0.22-3.814-0.198-3.345,1.21c1.685,0.473,3.38,0.874,5.174,0.87
	c2.154-0.005,4.281-0.229,6.516-0.234c1.63-0.004,3.188,0.17,4.802,0.354c0.976,0.111,3.636,0.5,4.413-0.24
	C558.004,534.353,555.282,534.595,554.562,534.335z"/>
<path fill="#AA6B00" d="M502.808,512.188h-0.712c-0.608-0.025-2.517,0.26-2.378,0.979c0.105,0.539,2.812,0.941,3.444,0.73
	C504.82,513.344,503.771,512.562,502.808,512.188z"/>
<path fill="#805000" d="M500.37,513.942c-0.171-0.068-0.318-0.358-0.585-0.419c-0.439-0.1-1.307-0.033-1.649,0.068l-0.507,0.546
	c-0.599,0-2.717-0.307-2.871,0.321c-0.166,0.674,2.212,0.719,2.759,0.695c1.028-0.045,2.121,0.056,3.171,0.001
	c0.636-0.032,1.027-0.062,1.446-0.463C501.702,514.222,500.979,514.188,500.37,513.942z"/>
<path fill="#805000" d="M530.428,510.081l-1.625-0.156c-1.393,0.006-4.219-0.446-3.386,1.216c0.521,1.038,2.188,1.199,3.503,1.115
	c-0.028-0.188,0.125-0.332,0.097-0.524c1.102-0.039,2.575,0.351,2.991-0.619C532.397,510.21,531.41,510.037,530.428,510.081z"/>
<path fill="#805000" d="M510.805,517.907c-0.794-0.015-1.469-0.342-2.25-0.416c-0.439-0.042-0.829-0.072-1.278-0.076l-0.813,0.312
	c-0.907,0-2.814-0.275-3.559,0c-1.495,0.553,0.813,1.438,1.741,1.567C505.817,519.458,511.324,519.475,510.805,517.907z"/>
<path fill="#805000" d="M537.732,513.834c-0.895-0.232-1.456-0.561-2.247-0.847c-0.648-0.233-1.557-0.405-2.281-0.255
	c-0.69,0.142-0.979,0.569-1.56,0.859l-1.014-0.078c-1.177-0.282-3.6,0.855-0.999,1.235c1.244,0.181,2.521-0.103,3.693-0.022
	c0.188,0.013,0.402,0.248,0.639,0.275c0.54,0.062,1.227,0.135,1.769,0.158C536.922,515.213,537.946,514.888,537.732,513.834z"/>
<path fill="#AA6B00" d="M541.886,511.286c-0.976-0.85-2.26-0.873-3.233-0.113l-0.711,0.312c-0.147-0.048-0.275-0.027-0.379,0.062
	c0.12,0.513,0.233,0.916,0.857,1.173c0.995,0.409,3.039,0.453,4.119,0.309C545.111,512.684,543.759,511.038,541.886,511.286z"/>
<path fill="#CC973D" d="M472,506.243c-1.258-0.449-2.754-0.423-4.029-0.389c-0.956,0.025-2.111,0.213-0.826,0.857
	c0.877,0.44,1.886,0.087,2.801,0.112c0.773,0.021,1.695,0.64,2.358,0.433L472,506.243z"/>
<path fill="#AA6B00" d="M579.165,501.087h-0.712c-0.609-0.025-2.516,0.26-2.379,0.979c0.106,0.539,2.814,0.941,3.444,0.73
	C581.179,502.243,580.129,501.462,579.165,501.087z"/>
<path fill="#664000" d="M672.086,471.107l-1.627-0.156c-0.907,0-1.835,0.013-2.671,0.113c-0.401,0.049-2.128,0.105-2.308,0.35
	c-0.661,0.902,3.226,1.059,4.079,1.183c0.907,0.132,4.24,0.966,4.613,0.068C674.417,472.083,672.603,471.358,672.086,471.107z"/>
<path fill="#805000" d="M576.728,502.842c-0.17-0.068-0.317-0.358-0.585-0.419c-0.439-0.1-1.306-0.033-1.649,0.068l-0.508,0.546
	c-0.598,0-2.715-0.307-2.87,0.321c-0.165,0.674,2.211,0.719,2.758,0.695c1.029-0.045,2.122,0.056,3.172,0.001
	c0.636-0.032,1.027-0.062,1.446-0.463C578.06,503.121,577.335,503.088,576.728,502.842z"/>
<path fill="#805000" d="M679.498,470.405l-1.624-0.156c-1.393,0.006-4.22-0.446-3.386,1.216c0.521,1.038,2.188,1.199,3.503,1.115
	c-0.028-0.188,0.124-0.332,0.097-0.524c1.101-0.039,2.574,0.351,2.991-0.619C681.469,470.534,680.479,470.361,679.498,470.405z"/>
<path fill="#AA6B00" d="M692.477,470.727c-0.976-0.85-2.26-0.873-3.232-0.113l-0.712,0.312c-0.147-0.048-0.274-0.027-0.379,0.062
	c0.119,0.513,0.233,0.916,0.856,1.173c0.996,0.409,3.04,0.453,4.12,0.309C695.702,472.124,694.351,470.479,692.477,470.727z"/>
<path fill="#4B6467" d="M113.258,526.407c-3.484-0.933-7.573-0.7-11.171-1.11c-2.748-0.313-5.469-0.455-7.551-1.994
	c-0.899-0.665-1.239-1.733-2.21-2.309c-1.893-1.118-3.298-0.82-5.681-0.979c-2.689-0.18-5.048-0.787-7.624-1.214
	c-1.162-0.191-2.333-0.164-3.497-0.228c-3.296-0.182-6.434-0.778-9.752-0.855c-7.627-0.177-14.198-1.146-21.274-3.019
	c-3.814-1.01-6.016-3.364-9.051-5.371c-2.846-1.881-4.937-3.106-5.917-5.928c-0.77-2.215-0.135-4.454-4.504-4.036
	c-2.496,0.238-4.218,1.858-6.961,1.603c0.042,0.004-1.924-0.467-2.063-0.498c-2.259-0.511-4.88-0.713-6.379-2.158
	c-1.085-1.046-0.669-2.497-3.581-1.146C4.347,497.951,1.3,503.672-1,502.15v40.935c1.941,1.667,4.536,0.079,6.978,0.065
	c3.332-0.019,6.768,0.339,10.17,0.344c3.199,0.005,5.368-0.938,8.442-1.568c5.271-1.081,11.416-1.576,16.905-1.135
	c2.237,0.18,4.514,0.939,6.57,1.521c4.646,1.311,9.61,1.916,14.811,1.715c5.587-0.217,11.199-2.546,16.505-3.809
	c4.229-1.006,9.164-1.582,12.967-3.288c1.88-0.844,3.496-2.407,5.42-3.138c2.289-0.869,5.101-0.299,7.604-0.48
	c3.133-0.227,13.386,0.97,13.796-2.786C119.404,528.366,115.445,526.992,113.258,526.407z"/>
<g>
	<path fill="#4B6467" d="M69.687,688.987c-0.479,0.069-0.894,0.161-1.134,0.307C68.974,689.284,69.337,689.148,69.687,688.987z"/>
	<path fill="#4B6467" d="M122.732,686.24c-0.278-0.027-0.578-0.021-0.876-0.017C122.128,686.248,122.414,686.26,122.732,686.24z"/>
	<path fill="#4B6467" d="M118.916,686.077c-2.863,0.525-5.646,0.467-8.43-0.081c-2.807-0.554-5.204-1.354-7.685-2.392
		c-0.792-0.332-1.386-0.838-2.207-1.124c-0.829-0.289-2-0.301-2.572-0.84c1.405-0.502,3.623-0.04,5.228-0.507
		c0.906-0.263,1.676-0.747,2.633-0.808c0.653-0.041,1.251,0.176,1.935,0.258c3.163,0.379,7.073,0.464,10.18,0.138
		c-3.977-1.18-8.866-1.137-13.081-1.275c-2.351-0.078-5.404,1.044-7.611,0.58c-0.505-0.105-1.243-0.591-1.745-0.774
		c-1.107-0.402-2.263-0.65-3.359-1.096c-3.56-1.446-7.541-2.57-11.473-3.219c-2.091-0.345-2.76-0.301-4.708,0.213
		c-1.886,0.498-3.851,0.269-5.387-0.736c-0.908,1.146-2.475,1.753-4.014,2.315c-0.886,0.323-3.006,0.906-4.066,0.812v3.132
		c2.767-0.229,5.107-1.869,7.908-1.005c3.697,1.142,6.703,3.32,10.83,3.165c-0.578-0.689-1.939-0.827-2.9-1.146
		c-0.897-0.298-1.674-0.668-2.484-1.147c-1.215-0.719-2.284-1.171-3.753-1.564c-1.198-0.32-3.259-0.479-3.97-1.314
		c1.642-0.308,1.57-2.064,3.616-1.228c0.591,0.242,1.179,0.824,1.857,0.898c1.267,0.139,2.07-1.104,3.155-1.368
		c1.456-0.355,5.125,1.118,6.364,1.632c1.878,0.778,4.708,2.047,6.854,2.041c-0.139,0.703-1.206,1.273-1.725,1.846
		c-0.667,0.732-0.81,1.073-1.095,1.89c-0.75,2.146-4.141,2.629-6.593,3.386c-2.41,0.744-5.01,0.565-7.366,1.202
		c-0.79,0.214-1.627,0.285-2.4,0.518c-0.409,0.123-0.78,0.332-1.165,0.509c1.122-0.16,2.645-0.176,3.445-0.337
		c0.794-0.161,1.657-0.201,2.511-0.313c3.206-0.42,6.875,0,9.667-1.394c2.34-1.169,4.364-2.746,5.417-4.753
		c0.341-0.649,0.468-1.427,1.037-1.981c2.037,0.87,3.641,2.124,5.78,2.892c2.925,1.049,5.849,2.104,8.69,3.201
		c3.546,1.37,7.811,1.425,11.62,0.507c1.189-0.287,2.663-0.567,4.001-0.585C120.872,686.136,120.101,685.859,118.916,686.077z"/>
</g>
<path fill="#4B6467" d="M-66.533,654.082c-0.963-0.102-1.986-0.137-2.9-0.327c-1.208-0.251-2.18-1.041-3.346-1.315
	c-1.667-0.391-2.489,0.665-3.878,0.879c-1.508,0.232-3.086,0.284-4.609,0.538c-1.117,0.188-2.554,0.318-3.637-0.031
	c-1.109-0.357-1.871-0.732-3.076-0.858c-1.069-0.112-1.938-0.213-2.926-0.616c0.125-1.212,3.538-1.853,4.083-3.109
	c1.712,0.88,3.348,1.222,5.404,1.446c1.556,0.17,2.909,1.234,4.45,1.067c-0.774-0.133-1.317-0.414-1.976-0.693
	c-1.026-0.436-1.882-0.49-2.957-0.691c-0.996-0.186-3.415-1.16-3.915-1.814c0.931-0.798,3.078-0.927,4.144-1.52
	c1.294-0.721,1.757-0.938,3.504-0.72c1.089,0.137,2.113,0.271,3.193,0.305c0.402,0.013,2.497,0.354,2.857,0.183
	c0.36-0.172,0.462-0.881,0.204-1.117c-0.429-0.394-1.367-0.044-1.905-0.021c-0.794,0.035-1.676,0.06-2.466-0.02
	c-0.65-0.064-1.248-0.344-1.882-0.43c-0.467-0.064-1.036,0.174-1.391-0.137c-0.671-0.586,0.343-2.466-1.373-2.107
	c-0.782,0.164-0.512,0.439-0.136,1.026c0.079,0.123,0.316,0.468,0.333,0.559c0.113,0.584,0.085,0.172-0.201,0.593
	c-0.723,1.06-2.437,1.297-3.727,1.823c-0.234,0.095-1.375,0.642-1.554,0.654c-0.78,0.059-1.015-0.368-1.654-0.746
	c-1.086-0.641-2.14-1.195-3.03-2.008c-0.516-0.471-1.51-1.037-1.242-1.693c0.169-0.415,1.266-0.618,1.559-1.083l0.227-0.435
	c-0.615,0.281-1.661,0.257-2.125,0.548c-0.244,0.152-0.327,0.938-0.596,1.178c-0.491,0.44-0.774,0.363-1.539,0.56
	c-1.343,0.347-2.037,0.97-2.955,1.725c-0.489,0.402-1.493,1.06-2.212,1.123c1.605,0.111,1.737-0.611,2.662-1.265
	c0.572-0.404,1.248-0.346,1.931-0.477c0.731-0.141,1.208-0.265,1.848-0.586c1.153,0.749,2.255,1.622,3.373,2.319
	c0.844,0.527,2.53,1.063,2.791,1.881c-2.494,0.661-4.726,2.664-5.829,4.409c-0.796,1.259-1.803,1.731-3.58,2.067
	c-1.11,0.21-2.242,0.331-3.222,0.821c-0.495,0.247-0.968,0.729-1.541,0.836c0.237,0.04,0.779-0.011,0.94-0.318
	c1.16-0.268,2.271-0.477,3.424-0.757c0.714-0.173,1.389-0.294,2.208-0.447c1.042-0.195,2.216-0.76,2.974-1.284
	c1.176-0.814,1.546-0.716,3.069-0.541c2.733,0.314,5.389,0.485,7.159,2.279c0.304,0.308,0.415,0.821,0.782,1.116
	c0.403,0.323,1.141,0.512,1.614,0.762c1.248,0.66,1.517,1.483,2.385,2.379c0.688-2.25-4.27-3.413-4.708-5.334
	c2.011-0.094,4.674-0.476,6.542-1.013c0.504-0.146,0.93-0.418,1.477-0.499c1.33-0.198,1.705,0.326,2.686,0.81
	c1.152,0.569,3.043,0.524,4.405,0.673c1.042,0.112,2.407,0.04,3.385-0.131C-63.874,654.118-65.509,654.19-66.533,654.082z"/>
<g>
	<path fill="#4B6467" d="M-97.489,643.199c0.121,0.067,0.293,0.112,0.549,0.122C-97.15,643.265-97.33,643.226-97.489,643.199z"/>
	<path fill="#4B6467" d="M-93.315,640.773c-0.953,0.076-2.97,0.545-3.145-0.562c-0.702,0.38-1.059,1.184-1.589,1.694
		c-0.66,0.635-1.58,1.169-1.7,2.02l0.339,0.087c0.82-0.513,0.845-0.989,1.92-0.812c-0.695-0.387,0.584-1.598,0.723-2.124
		c0.842,0.358,1.364,0.277,2.249,0.414c0.763,0.118,1.257,0.521,2.001,0.688c-0.002-0.1,0.012-0.206,0.006-0.309
		c0.766-0.079,1.585,0.028,2.339-0.09C-91.175,641.021-91.988,640.667-93.315,640.773z"/>
</g>
<path fill="#4B6467" d="M-75.329,645.104c-1.202-0.119-2.526-0.111-3.8-0.145c-0.073-0.275-0.552-0.888-0.368-1.146
	c0.301-0.419,1.438-0.277,1.958-0.47c0.766-0.284,1.341-1.365,2-1.431c0.004-0.095-0.018-0.241,0.003-0.328
	c-1.568-0.256-2.845,0.86-4.177,1.035l-0.566,0.435c-0.085,0.466,0.137,1.55,0.567,1.91c0.366,0.309,1.422,0.384,2.036,0.488
	c1.814,0.311,3.979,0.465,5.858,0.211C-72.952,645.638-74.141,645.222-75.329,645.104z"/>
<path fill="#4B6467" d="M-76.896,652.978c-0.995,0.229-2.013,0.299-3.069,0.446c-1.152,0.161-2.393,0.361-3.587,0.242
	c-0.975-0.098-1.77-0.627-2.699-0.687c0.926-0.531,2.193-0.211,3.056-0.622c-1.4,0.016-2.765,0.097-4.081,0.187
	c-0.74,0.051-1.767,0.069-2.397-0.183h-1.585c1.471,0.521,3.029,0.438,4.5,0.918c1.436,0.469,2.95,0.704,4.467,0.822
	c2.724,0.212,5.769-0.693,8.094-1.57C-75.283,652.549-75.892,652.747-76.896,652.978z"/>
<path fill="#4B6467" d="M-88.567,659.32c-1.333,0.28-2.726-0.15-4.05,0l-1.359-0.087c0.842,0.056,1.729,0.653,2.629,0.777
	c1.034,0.142,1.81,0.031,2.78-0.229c1.224-0.329,2.383-0.285,3.733-0.288C-86.278,659.406-87.197,659.032-88.567,659.32z"/>
<g>
	<path fill="#4B6467" d="M-49.169,660.346c0.369,0.167,0.723,0.354,1.044,0.586C-48.401,660.693-48.766,660.506-49.169,660.346z"/>
	<path fill="#4B6467" d="M-26.282,660.417c-2.178-0.2-4.677-0.101-6.487-0.846c-1.205-0.497-3.58-0.213-5.184-0.164
		c-1.62,0.05-3.131,0.362-4.615,0.005c-1.143-0.274-2.713-0.487-3.913-0.662c-1.275-0.186-2.63-0.427-3.909-0.474
		c-0.952-0.035-1.813,0.062-2.72-0.174c-0.81-0.211-1.371-0.72-2.111-0.874c-1.261-0.264-2.918-0.508-4.188-0.608
		c-0.881-0.069-1.601,0.09-2.417,0.216c-1.035,0.159-1.798,0.008-2.83-0.038l2.83,0.608c0.668-0.234,2.502-0.277,3.302-0.261
		c1.233,0.026,2.174,0.633,3.125,1.172c0.832,0.472,1.908,0.8,2.943,1.118c0.943,0.29,2.256,0.501,3.287,0.91
		c-1.277-0.579-2.756-0.875-3.89-1.632c2.167,0.506,4.528,0.486,6.725,0.959c1.156,0.248,2.312,0.615,3.559,0.759
		c0.835,0.096,3.375-0.378,3.35,0.422c-1.572,0.273-3.048,0.612-4.711,0.555c1.701,0,3.402,0.001,4.992-0.429
		c1.722-0.466,2.845-0.624,4.594-0.354c1.602,0.247,3.212,0.525,4.84,0.655c2.094,0.168,4.286-0.135,6.354,0.078
		c-1.069,0.635-2.657,0.724-3.757,1.275c1.292-0.034,2.119-0.104,3.293-0.405c1.096-0.28,2.002-0.704,3.22-0.644
		C-21.816,660.591-24.59,660.572-26.282,660.417z"/>
</g>
<g>
	<path fill="#4B6467" d="M-58.849,663.11c0.334-0.49,1.135-0.49,1.578-0.921c-0.8-0.235-3.042,1.036-4.129,1.199
		c-0.975,0.146-1.581,0.111-2.427,0.497c-0.796,0.362-1.121,0.644-2.032,0.74c-2.183,0.23-3.576-0.878-5.31-1.546
		c-1.005-0.387-2.241-0.595-3.11-1.063l-1.924-0.348c1.016,0.188,2.162,0.868,3.195,1.17c1.104,0.321,2.046,0.66,3.079,1.111
		c2.39,1.042,4.409,1.311,6.967,0.392c2.289-0.822,5.797-0.7,8.28-0.406c1.193,0.141,2.417,0.259,3.594,0.439
		c-0.904-0.304-1.308-0.493-2.292-0.639C-55.212,663.466-56.988,663.271-58.849,663.11z"/>
	<path fill="#4B6467" d="M-48.044,665.069c-0.645-0.335-2.2-0.563-2.967-0.685c-0.025-0.004-0.051-0.006-0.076-0.01
		c0.041,0.014,0.069,0.024,0.112,0.038C-50.059,664.716-49.006,664.832-48.044,665.069z"/>
</g>
<path fill="#4B6467" d="M-11.082,669.328c-0.516,0.187-1.09,0.135-1.571,0.474c-0.555,0.392-0.43,0.856-1.103,1.086
	c-0.996,0.34-2.167-0.344-3.056-0.486c-1.023-0.163-2.258-0.034-3.311-0.034c-1.463,0-2.345-0.066-3.668-0.436l-3.283-1.305
	c1.641,0.882,3.514,1.548,5.32,2.132c1.654,0.535,3.597,0.25,5.417,0.304c1.747,0.052,2.701,0.389,4.122-0.602
	c1.225-0.854,2.997-1.374,4.579-1.839C-9.128,668.641-9.792,668.861-11.082,669.328z"/>
<g>
	<path fill="#4B6467" d="M-69.395,676.891c1.703-0.005,3.955,0.197,5.541-0.506c-0.52,0.048-1.033,0.093-1.476,0.161
		C-66.707,676.759-67.965,676.891-69.395,676.891z"/>
	<path fill="#4B6467" d="M-55.713,675.673c-0.889-0.488-1.398-0.842-2.513-1.133c-1.242-0.325-1.599-0.803-2.777-0.225
		c-1.018,0.499-1.576,1.378-2.493,1.905c-0.112,0.064-0.238,0.11-0.358,0.164c0.862-0.08,1.747-0.172,2.386-0.422
		c1.522-0.594,2.102-1.476,3.754-0.657c1.108,0.549,2.534,1.613,4.038,1.411L-55.713,675.673z"/>
</g>
<g>
	<path fill="#567175" d="M296.064,540.588c-2.232-1.257-2.439-1.901-5.289-2.5c-2.259-0.475-4.943-0.563-6.48-2.014l-2.603-1.75
		c-3.988-0.869-9.221-0.095-13.128,0.15c-0.535,0.033-1.344-0.602-1.939-0.446c-0.655,0.171-0.731,1.097-1.105,1.185
		c-1.184,0.277-3.393,0.774-4.822,1.239c-2.081,0.676-4.299,2.248-6.232,3.127c-0.976,0.444-2.011,0.26-2.738,1.034
		c-0.688,0.731-0.476,2.543-1.446,3.586c3.761,0.676,7.392-0.601,11.151-0.387c3.731,0.213,6.709,0.846,10.55,0.017
		c4.434-0.957,3.837-0.327,8.286,0.381c4.539,0.723,12.655,1.466,17.212,0.863c1.265-0.167,4.983-0.257,5.078-1.756
		C302.654,541.794,297.392,541.335,296.064,540.588z"/>
	<path fill="#567175" d="M301.018,541.949c-1.31,0.038-3.756-0.988-4.811-1.5c-1.332-0.646-2.513-1.638-3.937-2.25
		c-3.011-1.294-7.756-0.591-9.602-3.25l-0.976-0.5c0.675,0.632,1.415,1.281,1.345,2.131c-2.527,0.944-6.251,0.852-8.991,1.245
		c-2.106,0.303-4.197,0.685-6.295,0.881c-1.024,0.095-1.866-0.041-2.685,0.382c3.519,0.413,6.956-0.262,10.448-0.389
		c2.055-0.074,5.599-0.572,6.13,1.328c-0.697,0.047-1.16,0.28-1.242,0.785c2.792,0.178,5.288-0.895,7.994-0.988
		c1.343-0.046,4.836-0.419,5.654,0.497c-0.811,0.399-1.769,0.549-2.417,1.085C294.745,541.688,297.896,541.735,301.018,541.949z"/>
</g>
<path fill="#506A6E" d="M592.37,543.423c-2.231-1.257-2.44-1.901-5.29-2.5c-2.259-0.475-4.943-0.563-6.479-2.014l-2.604-1.75
	c-3.987-0.869-9.222-0.095-13.128,0.15c-0.534,0.033-1.345-0.602-1.939-0.446c-0.656,0.171-0.732,1.097-1.105,1.185
	c-1.185,0.277-3.394,0.774-4.822,1.239c-2.082,0.676-4.299,2.248-6.232,3.127c-0.976,0.444-2.01,0.26-2.737,1.034
	c-0.688,0.731-0.477,2.543-1.446,3.586c3.761,0.676,7.392-0.601,11.15-0.387c3.731,0.213,6.708,0.846,10.549,0.017
	c4.436-0.957,3.838-0.327,8.286,0.381c4.54,0.723,12.656,1.466,17.214,0.863c1.263-0.167,4.981-0.257,5.078-1.756
	C598.959,544.629,593.697,544.17,592.37,543.423z"/>
<path fill="#2F5A6E" d="M597.324,544.784c-1.312,0.038-3.757-0.988-4.812-1.5c-1.332-0.646-2.512-1.638-3.938-2.25
	c-3.01-1.294-7.755-0.591-9.601-3.25l-0.977-0.5c0.674,0.632,1.414,1.281,1.345,2.131c-2.526,0.944-6.253,0.852-8.99,1.245
	c-2.107,0.303-4.196,0.685-6.296,0.881c-1.024,0.095-1.866-0.041-2.685,0.382c3.519,0.413,6.955-0.262,10.447-0.389
	c2.054-0.074,5.6-0.572,6.131,1.328c-0.696,0.047-1.161,0.28-1.243,0.785c2.794,0.178,5.287-0.895,7.994-0.988
	c1.342-0.046,4.837-0.419,5.656,0.497c-0.812,0.399-1.77,0.549-2.418,1.085C591.051,544.522,594.203,544.57,597.324,544.784z"/>
<g>
	<path fill="#646266" d="M218.94,519.286c0.478-0.189,0.855-0.773,1.202-0.951c-4.468-3.535-10.359-3.195-15.04-6.299l-6.182-0.5
		c-5.329-0.045-9.64,1.937-14.691,2.985c-1.748,0.363-4.176,0.656-4.392,2.602c-0.144,1.291,0.267,2.061,2.429,1.919
		c-1.063,0.161-5.892,0.571-6.311,1.294c-0.839,1.446,3.547,3.197,4.993,3.713c3.562,1.271,5.931,0.869,9.643,0.351
		c2.172-0.304,4.516-0.075,6.736-0.363c1.659-0.215,2.856-0.749,4.615-0.774c2.269-0.032,4.563,1.179,6.653,1.604
		c3.087,0.63,6.812,0.666,10.071,0.308C225.048,524.472,225.886,520.241,218.94,519.286z"/>
	<path fill="#646266" d="M204.151,517.383c-1.621-0.513-4.207-1.999-6.179-1.202c-0.272,0.109-0.607,0.771-0.953,0.98
		c-0.88,0.536-2.053,0.634-3.1,0.78c-1.832,0.256-3.548,0.179-5.373,0.345c-1.351,0.123-2.143,0.478-3.337,0.809
		c-1.417,0.393-2.439-0.013-4.021,0.066l-0.813-0.25c-2.971-0.192-8.209,1.939-4.339,4.103c1.536,0.859,3.579,0.706,5.455,0.647
		c0.518-0.017,1.418,0.123,1.87-0.116c0.49-0.26,0.323-0.804,0.667-1.168c2.808-2.972,9.113-2.299,13.138-3.591
		c1.769-0.567,2.379-0.901,4.296-0.647c1.677,0.223,6.821,2.445,7.906,1.553C208.027,518.611,205.833,517.916,204.151,517.383z"/>
	<path fill="#646266" d="M222.468,520.474c-0.738-0.435-3.253-0.688-3.213-1.312v-0.375c-0.403,1.642-7.671,1.496-9.575,1.681
		c2.177,0.951,7.144,0.27,9.739,0.575c2.11,0.248,3.042,0.581,4.489,1.769C224.038,521.773,223.518,521.092,222.468,520.474z"/>
</g>
<g>
	<path fill="#567175" d="M265.584,487.416c-0.962-1.251,0.459-2.849-2.733-2.633l-4.555-0.5c-3.365,0.205-8.072-4.748-8.85-0.087
		c-2.646,0.278-12.378-1.42-11.688,2.056c-1.849,0.105-3.636,1.904-4.123,3.224c3.04,1.422,7.479,2.169,10.796,1.311
		c3.033-0.785,3.596-1.312,7.197-1.253c5.586,0.093,10.987,2.036,16.663,1.405C268.631,489.059,266.573,488.702,265.584,487.416z"/>
	<path fill="#567175" d="M244.008,486.658c-1.363,0-6.103,0.493-6.21-1.25l-0.163,0.75c-0.733,0.385-4.48,2.172-4.569,2.875
		c-0.187,1.466,3.396-0.628,4.044-1.027c0.918-0.566,0.824-0.875,2.041-0.972c1.339-0.107,2.852,0.362,4.149,0.512
		c2.274,0.263,4.258-0.145,6.494-0.391C247.698,487.169,246.111,486.658,244.008,486.658z"/>
	<path fill="#567175" d="M249.999,484.158l-0.813,0.125c0.967,0.564,4.006,1.749,4.916,0.743
		C253.346,484.198,251.331,484.016,249.999,484.158z"/>
	<path fill="#567175" d="M268.219,489.783l-0.813-0.875c-1.932-1.026-3.373-1.605-5.694-1.872c-2.251-0.259-5.014-0.609-7.257-0.487
		c-0.537,2.104-6.019,2.112-7.661,3.421c1.421,0.676,4.386,0.188,6.13,0.188c2.719,0,5.365,0.049,7.982,0.501
		C262.871,490.999,268.692,492.843,268.219,489.783z"/>
</g>
<g>
	<path fill="#506A6E" d="M702.563,477.279c-0.964-1.251,0.46-2.849-2.733-2.633l-4.555-0.5c-3.365,0.205-8.072-4.748-8.851-0.087
		c-2.646,0.278-12.379-1.42-11.688,2.056c-1.851,0.105-3.638,1.904-4.123,3.224c3.038,1.422,7.479,2.169,10.796,1.311
		c3.032-0.785,3.597-1.312,7.198-1.253c5.584,0.093,10.985,2.036,16.662,1.405C705.61,478.922,703.552,478.565,702.563,477.279z"/>
	<path fill="#506A6E" d="M680.988,476.521c-1.365,0-6.104,0.493-6.21-1.25l-0.163,0.75c-0.734,0.385-4.481,2.172-4.57,2.875
		c-0.186,1.466,3.396-0.628,4.044-1.027c0.921-0.566,0.824-0.875,2.042-0.972c1.339-0.107,2.852,0.362,4.147,0.512
		c2.275,0.263,4.261-0.145,6.495-0.391C684.676,477.032,683.09,476.521,680.988,476.521z"/>
	<path fill="#506A6E" d="M686.979,474.021l-0.812,0.125c0.966,0.564,4.006,1.749,4.915,0.743
		C690.324,474.062,688.311,473.879,686.979,474.021z"/>
	<path fill="#506A6E" d="M705.199,479.646l-0.813-0.875c-1.932-1.026-3.373-1.605-5.694-1.872c-2.252-0.259-5.015-0.609-7.257-0.487
		c-0.539,2.104-6.019,2.112-7.661,3.421c1.421,0.676,4.385,0.188,6.129,0.188c2.72,0,5.365,0.049,7.981,0.501
		C699.851,480.862,705.672,482.706,705.199,479.646z"/>
</g>
<g>
	<path fill="#506A6E" d="M246.132,502.16l-5.206-0.25c-1.427-0.001-3.117-0.215-4.502-0.01c-1.974,0.293-3.264,1.534-4.813,1.979
		c-3.495,1.003-5.372,0.99-8.305,3.269c0.576,1.226,3.637,2.227,5.213,2.286c1.458,0.055,2.259-0.514,3.55-0.604
		c2.465-0.173,4.909,0.256,7.429,0.342c4.43,0.15,9.009,0.09,13.439-0.039C253.5,507.569,248.274,503.039,246.132,502.16z"/>
	<g>
		<path fill="#506A6E" d="M228.355,505.143c-1.388,0.167-3.098,0.444-3.483,0.907C225.872,505.851,227.239,505.534,228.355,505.143z
			"/>
		<path fill="#506A6E" d="M233.453,503.037l1.78-0.752C234.498,502.296,233.759,502.572,233.453,503.037z"/>
		<path fill="#506A6E" d="M238.469,504.16c-1.756,0.002-3.775,0.051-5.168-0.649c0-0.175,0.058-0.332,0.152-0.474l-1.474,0.623
			c-1.171,0.441-1.589,0.558-2.609,1.065c-0.294,0.146-0.641,0.286-1.015,0.417c0.699-0.084,1.324-0.142,1.642-0.177
			c1.318-0.146,2.903-0.129,4.259-0.062c0.709,0.035,1.078,0.158,1.875,0.106c1.084-0.07,1.916-0.441,3.02-0.36
			c1.794,0.132,3.434,0.564,5.363,0.487C243.543,504.027,240.077,504.159,238.469,504.16z"/>
	</g>
	<path fill="#506A6E" d="M251.826,508.285c-1.88-0.12-3.564,0.986-5.552,1.006c-0.963,0.009-2.132-0.05-2.26-0.906
		c-0.229-1.525,2.129-0.681,2.592-1.577c-2.559-0.465-2.59,1.55-4.28,2.074c-1.333,0.414-3.019-0.11-4.091-0.649
		c-1.537-0.771-1.673-0.709-3.446-0.572c-2.209,0.171-4.349,0.506-6.552,0.5c-0.953-0.003-1.864,0.009-2.76-0.133
		c-0.892-0.141-1.706-0.675-2.726-0.564c2.903,3.423,10.544,0.874,14.779,1.444c2.719,0.366,5.601,0.763,8.48,0.878
		c2.045,0.082,6.12,0.382,7.28-1.125L251.826,508.285z"/>
</g>
<g>
	<path fill="#506A6E" d="M527.062,536.567l-5.205-0.25c-1.428-0.001-3.118-0.215-4.502-0.01c-1.974,0.293-3.265,1.534-4.813,1.979
		c-3.494,1.003-5.37,0.99-8.304,3.269c0.576,1.226,3.636,2.227,5.213,2.286c1.458,0.055,2.259-0.514,3.549-0.604
		c2.466-0.173,4.909,0.256,7.43,0.342c4.431,0.15,9.009,0.09,13.438-0.039C534.43,541.977,529.205,537.446,527.062,536.567z"/>
	<g>
		<path fill="#506A6E" d="M509.285,539.55c-1.388,0.167-3.099,0.444-3.483,0.907C506.802,540.258,508.17,539.941,509.285,539.55z"/>
		<path fill="#506A6E" d="M514.382,537.444l1.78-0.752C515.428,536.703,514.689,536.979,514.382,537.444z"/>
		<path fill="#506A6E" d="M519.399,538.567c-1.757,0.002-3.774,0.051-5.169-0.649c0.001-0.175,0.059-0.332,0.151-0.474l-1.473,0.623
			c-1.171,0.441-1.589,0.558-2.609,1.065c-0.295,0.146-0.641,0.286-1.015,0.417c0.699-0.084,1.324-0.142,1.643-0.177
			c1.316-0.146,2.902-0.129,4.258-0.062c0.709,0.035,1.077,0.158,1.875,0.106c1.083-0.07,1.916-0.441,3.021-0.36
			c1.793,0.132,3.434,0.564,5.361,0.487C524.473,538.435,521.006,538.566,519.399,538.567z"/>
	</g>
	<path fill="#506A6E" d="M532.756,542.692c-1.88-0.12-3.564,0.986-5.552,1.006c-0.963,0.009-2.131-0.05-2.261-0.906
		c-0.229-1.525,2.13-0.681,2.593-1.577c-2.559-0.465-2.591,1.55-4.28,2.074c-1.332,0.414-3.018-0.11-4.09-0.649
		c-1.538-0.771-1.674-0.709-3.447-0.572c-2.209,0.171-4.349,0.506-6.553,0.5c-0.953-0.003-1.863,0.009-2.759-0.133
		c-0.893-0.141-1.706-0.675-2.727-0.564c2.902,3.423,10.544,0.874,14.778,1.444c2.72,0.366,5.601,0.763,8.479,0.878
		c2.046,0.082,6.121,0.382,7.281-1.125L532.756,542.692z"/>
</g>
<g>
	<path fill="#506A6E" d="M297.778,521.581c-4.358-2.394-11.509-0.667-15.244-3.257l-3.253-0.25c-6.033,0-12.318-0.05-18.29,0.475
		c-4.364,0.384-8.157,1.549-7.365,5.494c6.568,0.83,12.32,3.256,18.847,3.781c4.019,0.323,8.009-0.511,12.033-0.5
		c3.21,0.008,6.617,0.245,9.817-0.002C299.577,526.916,303.325,524.628,297.778,521.581z"/>
	<path fill="#506A6E" d="M289.706,526.949c-1.366-0.069-6.335-0.085-6.544-1.234c-1.84-0.224-3.941,0.619-5.951,0.484
		c-1.267-0.085-2.421-0.461-3.659-0.5c-1.159-0.037-2.169,0.178-3.375,0.125c-1.463-0.063-2.615-0.424-4.053-0.647
		c0.23-2.196,2.889-1.336,4.209-2.841c-1.693-0.17-3.326,0.853-4.815,1.27c-1.46,0.409-2.37,0.693-3.968,0.719
		c-1.821,0.029-7.793,0.338-8.134-1.625l-0.813,0.75c1.224,1.683,4.195,0.831,6.223,1.424c4.589,1.342,8.263,3.673,13.564,3.701
		c4.289,0.022,8.235-0.215,12.322-0.872c3.081-0.494,6.389-0.378,9.648-0.378C293.042,527.393,291.269,527.028,289.706,526.949z"/>
</g>
<linearGradient id="SVGID_25_" gradientUnits="userSpaceOnUse" x1="819.6895" y1="336.3037" x2="819.6895" y2="507.1113">
	<stop  offset="0" style="stop-color:#00BE00"/>
	<stop  offset="1" style="stop-color:#005A37"/>
</linearGradient>
<path fill="url(#SVGID_25_)" d="M850,347.799c-10.871-17.891-30.186-18.948-30.186-18.948s40.025,26.087,11.18,92.547
	S789.379,549,789.379,549h13.043c4.348-26.435,22.361-64.87,39.131-109.47c3.306-8.791,6.121-16.57,8.447-23.591V347.799z"/>
<linearGradient id="SVGID_26_" gradientUnits="userSpaceOnUse" x1="842.7051" y1="396.3906" x2="721.7056" y2="544.2932" gradientTransform="matrix(-1 0 0 1 850.2363 0)">
	<stop  offset="0.0021" style="stop-color:#008837"/>
	<stop  offset="0.0464" style="stop-color:#009925"/>
	<stop  offset="0.114" style="stop-color:#00AE11"/>
	<stop  offset="0.1808" style="stop-color:#00BA04"/>
	<stop  offset="0.2452" style="stop-color:#00BE00"/>
	<stop  offset="1" style="stop-color:#005A37"/>
</linearGradient>
<path fill="url(#SVGID_26_)" d="M126.236,548.897c0,0-28.806-119.237-126.236-153.903v9c0,0,71.57,44.807,107.903,144.903H126.236z"
	/>
<linearGradient id="SVGID_27_" gradientUnits="userSpaceOnUse" x1="472.6631" y1="455.0371" x2="459.1692" y2="548.1682" gradientTransform="matrix(-0.7403 0 0 0.8751 453.2111 66.2978)">
	<stop  offset="0" style="stop-color:#00BE00"/>
	<stop  offset="1" style="stop-color:#005A37"/>
</linearGradient>
<path fill="url(#SVGID_27_)" d="M76.397,549.407c0,0,15.14-58.146,63.669-89.333c0,0-42.032,38.943-57.254,89.333H76.397z"/>
<g>
	<path fill="#506A6E" d="M836.511,469.245c-5.398-2.505-4.626,0.187-6.64,2.126c-2.78,2.68-7.641,3.055-11.829,4.002
		c-0.257,0.058-3.904,0.931-3.825,0.924c-5.087,0.474-8.282-2.53-12.908-2.972c-8.101-0.775-6.927,3.377-8.354,7.483
		c-1.815,5.232-5.694,7.505-10.971,10.992c-5.628,3.722-9.71,8.087-16.784,9.96c-13.121,3.473-25.304,5.27-39.447,5.597
		c-6.153,0.144-11.972,1.25-18.085,1.587c-2.155,0.117-4.329,0.066-6.484,0.422c-4.776,0.791-9.15,1.917-14.138,2.251
		c-4.415,0.293-7.023-0.26-10.533,1.814c-1.8,1.066-2.433,3.047-4.095,4.28c-3.861,2.854-8.909,3.116-14.003,3.698
		c-6.673,0.76-14.255,0.329-20.714,2.059c-4.06,1.085-11.397,3.633-10.96,7.636c0.76,6.965,19.772,4.747,25.581,5.167
		c4.641,0.337,9.854-0.721,14.1,0.891c3.568,1.354,6.565,4.254,10.053,5.818c7.051,3.163,16.199,4.231,24.043,6.097
		c1.433,0.341,2.878,0.727,4.332,1.133h65.294c0.208-0.021,0.418-0.053,0.626-0.069c5.367-0.432,11.069-0.369,16.695,0.069h62.102
		v-71.721C845.303,481.311,839.652,470.703,836.511,469.245z"/>
	<g>
		<path fill="#3C5255" d="M829.433,534.813c0.887,0.129,1.654,0.299,2.103,0.569C830.755,535.364,830.081,535.112,829.433,534.813z"
			/>
		<path fill="#3C5255" d="M731.068,529.72c0.516-0.051,1.072-0.038,1.624-0.03C732.189,529.734,731.66,529.756,731.068,529.72z"/>
		<path fill="#3C5255" d="M738.147,529.418c5.308,0.974,10.47,0.865,15.63-0.15c5.205-1.027,9.651-2.51,14.252-4.435
			c1.467-0.616,2.567-1.554,4.09-2.085c1.538-0.536,3.711-0.558,4.771-1.557c-2.607-0.932-6.718-0.074-9.694-0.94
			c-1.68-0.487-3.106-1.385-4.885-1.497c-1.208-0.076-2.318,0.325-3.587,0.478c-5.864,0.703-13.113,0.86-18.876,0.256
			c7.374-2.188,16.44-2.108,24.255-2.365c4.358-0.145,10.02,1.936,14.114,1.075c0.936-0.195,2.303-1.095,3.236-1.436
			c2.048-0.746,4.193-1.206,6.225-2.032c6.604-2.682,13.985-4.766,21.275-5.968c3.879-0.64,5.116-0.558,8.731,0.395
			c3.497,0.924,7.137,0.498,9.989-1.365c1.683,2.126,4.588,3.25,7.442,4.293c1.642,0.6,5.574,1.681,7.539,1.507v5.808
			c-5.132-0.426-9.471-3.466-14.664-1.863c-6.855,2.116-12.43,6.156-20.08,5.868c1.07-1.278,3.597-1.533,5.378-2.124
			c1.663-0.552,3.102-1.238,4.604-2.127c2.255-1.333,4.234-2.172,6.96-2.901c2.222-0.594,6.044-0.888,7.363-2.438
			c-3.045-0.57-2.913-3.828-6.705-2.276c-1.096,0.449-2.188,1.528-3.447,1.666c-2.346,0.258-3.835-2.046-5.849-2.537
			c-2.699-0.659-9.501,2.074-11.799,3.026c-3.482,1.443-8.729,3.796-12.71,3.784c0.257,1.304,2.237,2.361,3.198,3.423
			c1.24,1.358,1.502,1.99,2.031,3.504c1.39,3.98,7.679,4.875,12.226,6.278c4.469,1.38,9.291,1.049,13.66,2.229
			c1.464,0.396,3.02,0.528,4.451,0.959c0.76,0.229,1.446,0.616,2.16,0.943c-2.082-0.297-4.905-0.325-6.391-0.624
			c-1.472-0.299-3.072-0.373-4.656-0.582c-5.945-0.778-12.747,0-17.925-2.584c-4.342-2.167-8.094-5.092-10.043-8.812
			c-0.633-1.205-0.869-2.646-1.925-3.675c-3.776,1.613-6.751,3.938-10.719,5.362c-5.424,1.944-10.844,3.9-16.112,5.936
			c-6.576,2.541-14.486,2.642-21.55,0.939c-2.206-0.532-4.939-1.052-7.42-1.084C734.521,529.526,735.948,529.014,738.147,529.418z"
			/>
	</g>
	<g>
		<path fill="#3C5255" d="M724.064,543.136c-0.547,0.233-1.085,0.486-1.795,0.738C722.636,543.624,723.305,543.367,724.064,543.136z
			"/>
		<path fill="#3C5255" d="M758.104,511.705c0.486-0.47,0.979-0.943,1.589-1.407C759.289,510.845,758.735,511.299,758.104,511.705z"
			/>
		<path fill="#3C5255" d="M678.629,524.667c3.495-0.35,11.123,0.516,13.716-1.505c-1.197-0.71-2.964-1.708-3.151-3.088
			c0.676-0.331,1.352-0.638,2.033-0.974c0.953,0.914,2.89,2.448,4.44,2.743c1.909,0.364,4.026-0.869,5.869-1.15
			c3.152-0.479,5.422-1.743,8.614-2.245c3.938-0.619,7.268,0.163,11.161,0.168c-4.486-0.054-8.668-0.287-12.844,1.074
			c-2.32,0.757-4.072,1.322-6.502,1.798c-2.166,0.422-6.129,1.165-7.729,2.09c1.718,0.873,3.868,0.606,5.688,1.668
			c2.384,1.391,4.565,3.325,7.964,3.057c2.867-0.225,5.482-0.5,8.522-0.5c3.305,0,5.546-0.598,8.581-1.55
			c2.244-0.706,4.153-1.876,6.456-2.531c3.043-0.864,6.579-0.37,9.481-1.77c1.561-0.75,2.471-1.952,3.752-2.887
			c1.24-0.903,3.559-1.83,3.238-3.299c-2.946-0.339-5.809-0.275-8.678-0.799c-3.305-0.6-6.738-0.556-9.941-1.369
			c-2.896-0.735-5.856-2.557-9.031-2.573c-2.796-0.015-5.104,1.07-8.024,0.737c1.021-0.565,3.139-0.467,4.547-0.958
			c1.434-0.502,1.887-0.827,3.806-0.742c4.303,0.19,8.062,2.22,11.753,3.225c4.591,1.255,10.663,1.856,15.625,1.937
			c2.014,0.032,3.127-0.062,4.751-0.93c1.611-0.861,3.762-1.548,5.378-2.589c-0.812,0.785-1.588,1.552-2.765,2.198
			c-1.871,1.024-7.938,3.207-7.591,5.492c1.792-0.127,3.801-0.381,5.653-0.608c1.233-0.15,2.412-0.593,3.693-0.668
			c1.058-0.063,2.341,0.191,3.384-0.025c2.371-0.496,2.752-2.363,4.277-3.232c0.818-0.468,2.479-0.604,3.462-0.977
			c0.523-0.201,0.956-0.532,1.502-0.723c4.264-1.49,8.846-3.339,13.482-3.674c3.216-0.233,7.387,0.54,10.36-0.418
			c-2.277,0.943-4.448,0.474-6.972,0.704c-3.106,0.282-6.31,0.924-9.232,1.861c-3.973,1.275-7.523,2.382-10.849,4.493
			c-1.207,0.77-2.671,1.753-4.041,2.366c-3.065,1.378-6.444,0.634-9.807,1.15c-5.14,0.787-10.696,2.569-15.167,4.409
			c-3.948,1.624-8.597,3.44-12.902,4.565c-2.385,0.622-5.109,0.202-7.669,0.297c-2.753,0.102-5.42,1.014-8.116,1.026
			c4.812,0.527,8.949,1.759,13.515,2.859c2.687,0.646,5.552,0.731,8.34,1.049c3.083,0.35,6.039,1.179,9.182,1.609
			c5.892,0.81,11.883,1.869,17.818,2.526c2.295,0.255,3.657,1.204,5.866,1.537c4.044,0.61,9.214-0.353,13.215-0.757
			c3.861-0.391,7.028-0.71,10.188-2.305c2.375-1.199,3.084-1.632,5.442-0.674c6.091,2.472,12.15,3.466,19.168,3.466l-3.99,1.13
			c-2.667,0-5.343,0.036-8.012,0c-3.36-0.045-4.68-1.181-7.347-2.461c-3.432-1.647-6.182,1.405-9.168,2.667
			c-1.8,0.759-1.925,0.301-3.988,0.258c-3.185-0.067-7.112,0.38-10.564,0.325c0.659,0.733,1.345,0.553,2.212,1.062
			c1.015,0.594,1.606,1.351,2.608,2.075c1.664,1.204,3.751,1.552,5.92,1.889c1.888,0.292,3.919,0.036,5.818,0.306
			c1.992,0.283,3.578,1.438,5.693,1.464c-1.553,0.063-2.699-0.317-4.156-0.487c-1.876-0.218-4.028-0.006-5.915,0
			c-2.605,0.007-4.567-0.339-6.819-1.395c-2.659-1.246-5.025-3.712-7.915-4.553c-3.312-0.963-6.104,0.473-8.976,1.279
			c-3.684,1.03-8.213,0.273-12.125,0.51c2.003,0.093,4.692,2.604,4.794,3.993c-1.83-0.011-3.54-1.938-5.23-2.563
			c-2.735-1.015-5.72-1.929-8.752-2.11c-2.354-0.141-5.071-0.295-7.379-0.291c-0.925,0.002-2.737,0.344-4.187,0.784
			c0.737-0.315,1.482-0.589,2.639-0.727c1.756-0.208,3.645-0.252,5.544-0.252c4.969,0,9.936,0.002,14.905,0
			c5.025-0.002,9.128-0.708,14.049-1.419c-3.704-0.902-7.761-0.334-11.614-0.839c-5.365-0.701-10.411-2.899-15.95-3.559
			c-4.842-0.575-8.962-1.336-14.054-0.67c-1.467,0.192-2.729,0.826-4.166,1.013c-2.618,0.339-6.735-0.438-9.026-1.163
			c1.64,0.521,3.671,0.135,5.312-0.226c2.764-0.61,5.547-0.94,8.409-1.31c-0.582-0.926-6.703-1.378-8.335-1.882
			c-2.926-0.903-6.329-2.828-9.553-2.525c-3.789,0.356-7.519,1.879-11.453,2.101c-5.119,0.285-11.87,1.168-16.881,0.193
			c3.826-0.229,7.728-0.431,11.472-0.697c2.685-0.192,4.263-0.782,6.657-1.534c3.79-1.191,8.07-0.237,11.654-1.149
			c-1.469-0.939-3.162-1.564-4.867-2.101c-1.305-0.411-2.677-1.079-3.938-1.45c-1.887-0.553-2.677,0.051-4.594,0.25
			c-2.674,0.278-5.589,0.731-8.304,0.677c-3.251-0.065-6.113-0.969-9.57-0.967c-1.256,0-2.715-0.142-3.922,0.072
			c-1.169,0.205-2.471,1.125-3.734,1C667.636,523.144,674.651,525.065,678.629,524.667z"/>
	</g>
	<g>
		<path fill="#3C738C" d="M716.603,527.979c-0.684,0.31-1.339,0.656-1.937,1.087C715.177,528.624,715.853,528.276,716.603,527.979z"
			/>
		<path fill="#3C738C" d="M674.162,528.112c4.038-0.371,8.675-0.187,12.027-1.568c2.237-0.922,6.64-0.395,9.613-0.305
			c3.005,0.093,5.809,0.672,8.562,0.01c2.114-0.509,5.027-0.904,7.252-1.229c2.366-0.344,4.88-0.791,7.249-0.878
			c1.767-0.065,3.362,0.114,5.043-0.322c1.505-0.391,2.544-1.335,3.914-1.621c2.339-0.488,5.412-0.941,7.766-1.128
			c1.637-0.128,2.972,0.167,4.483,0.4c1.917,0.295,3.335,0.015,5.249-0.07l-5.249,1.128c-1.24-0.435-4.639-0.515-6.123-0.483
			c-2.285,0.049-4.028,1.173-5.793,2.173c-1.543,0.875-3.538,1.483-5.457,2.073c-1.749,0.538-4.187,0.929-6.096,1.688
			c2.367-1.073,5.109-1.622,7.212-3.025c-4.017,0.938-8.394,0.901-12.468,1.778c-2.146,0.46-4.288,1.141-6.602,1.407
			c-1.545,0.177-6.261-0.701-6.21,0.782c2.916,0.507,5.653,1.135,8.736,1.028c-3.154,0-6.309,0.002-9.257-0.795
			c-3.192-0.864-5.277-1.157-8.521-0.655c-2.969,0.458-5.956,0.974-8.973,1.215c-3.884,0.312-7.951-0.25-11.784,0.145
			c1.982,1.177,4.929,1.342,6.967,2.365c-2.396-0.063-3.93-0.194-6.107-0.752c-2.031-0.52-3.714-1.306-5.971-1.193
			C665.883,528.435,671.025,528.4,674.162,528.112z"/>
	</g>
</g>
<g>
	
		<linearGradient id="SVGID_28_" gradientUnits="userSpaceOnUse" x1="7.0679" y1="449.7344" x2="-27.0947" y2="413.709" gradientTransform="matrix(0.4754 0 0 0.4754 88.9212 278.0447)">
		<stop  offset="0" style="stop-color:#00BE00"/>
		<stop  offset="1" style="stop-color:#005A37"/>
	</linearGradient>
	<path fill="url(#SVGID_28_)" d="M77.985,470.108c0.056,1.496,14.659,20.671,14.659,20.671s-17.335-6.496-26.194-20.671H77.985z"/>
	
		<linearGradient id="SVGID_29_" gradientUnits="userSpaceOnUse" x1="-30.9805" y1="417.7178" x2="4.423" y2="525.7909" gradientTransform="matrix(0.4754 0 0 0.4754 88.9212 278.0447)">
		<stop  offset="0" style="stop-color:#00BE00"/>
		<stop  offset="1" style="stop-color:#005A37"/>
	</linearGradient>
	<path fill="url(#SVGID_29_)" d="M107.497,548.332c0,0-28.015-27.433-29.511-78.224H66.45c0,0,3.248,52.823,34.845,78.224H107.497z"
		/>
</g>
<g>
	
		<linearGradient id="SVGID_30_" gradientUnits="userSpaceOnUse" x1="-12.9258" y1="436.0215" x2="-47.0874" y2="399.9971" gradientTransform="matrix(-0.6992 0 0 0.6992 799.9233 159.6631)">
		<stop  offset="0" style="stop-color:#00BE00"/>
		<stop  offset="1" style="stop-color:#005A37"/>
	</linearGradient>
	<path fill="url(#SVGID_30_)" d="M830.527,431.987c-0.082,2.2-21.557,30.398-21.557,30.398s25.492-9.554,38.521-30.398H830.527z"/>
	
		<linearGradient id="SVGID_31_" gradientUnits="userSpaceOnUse" x1="-51.4893" y1="404.1699" x2="-16.0852" y2="512.2447" gradientTransform="matrix(-0.6992 0 0 0.6992 799.9233 159.6631)">
		<stop  offset="0" style="stop-color:#00BE00"/>
		<stop  offset="1" style="stop-color:#005A37"/>
	</linearGradient>
	<path fill="url(#SVGID_31_)" d="M787.127,547.261c0,0,41.199-40.579,43.4-115.273h16.965c0,0-4.777,77.683-51.244,115.273H787.127z
		"/>
</g>
<linearGradient id="SVGID_32_" gradientUnits="userSpaceOnUse" x1="482.126" y1="442.9316" x2="468.632" y2="536.063" gradientTransform="matrix(1.5571 0 0 1.8407 26.3518 -445.4394)">
	<stop  offset="0" style="stop-color:#00BE00"/>
	<stop  offset="1" style="stop-color:#005A37"/>
</linearGradient>
<path fill="url(#SVGID_32_)" d="M833.781,548.262c0,0-32.01-122.639-134.084-188.236c0,0,88.408,81.912,120.59,188.236H833.781z"/>
<linearGradient id="SVGID_33_" gradientUnits="userSpaceOnUse" x1="827.6445" y1="401.7246" x2="713.5454" y2="541.1925">
	<stop  offset="0.0021" style="stop-color:#008837"/>
	<stop  offset="0.0464" style="stop-color:#009925"/>
	<stop  offset="0.114" style="stop-color:#00AE11"/>
	<stop  offset="0.1808" style="stop-color:#00BA04"/>
	<stop  offset="0.2452" style="stop-color:#00BE00"/>
	<stop  offset="1" style="stop-color:#005A37"/>
</linearGradient>
<path fill="url(#SVGID_33_)" d="M719.043,548.262c0,0,24.715-119.237,108.309-153.903v9c0,0-61.406,44.807-92.578,144.903H719.043z"
	/>
<linearGradient id="SVGID_34_" gradientUnits="userSpaceOnUse" x1="445.5469" y1="452.248" x2="432.0529" y2="545.3793" gradientTransform="matrix(0.9442 0 0 0.9442 277.3696 29.562)">
	<stop  offset="0" style="stop-color:#00BE00"/>
	<stop  offset="1" style="stop-color:#005A37"/>
</linearGradient>
<path fill="url(#SVGID_34_)" d="M732.418,548.262c0,0-19.41-62.91-81.307-96.56c0,0,53.609,42.019,73.123,96.56H732.418z"/>
<linearGradient id="SVGID_35_" gradientUnits="userSpaceOnUse" x1="663.6357" y1="324.3574" x2="723.2635" y2="543.6125" gradientTransform="matrix(0.6064 0 0 0.6064 267.8151 208.7751)">
	<stop  offset="0" style="stop-color:#00BE00"/>
	<stop  offset="1" style="stop-color:#005A37"/>
</linearGradient>
<path fill="url(#SVGID_35_)" d="M710.65,548.262c0,0-22.977-53.272-35.029-88.677c-12.051-35.403,0-69.302,0-69.302
	s6.027,19.962,7.533,41.808c1.506,21.845,17.326,82.815,33.145,116.171H710.65z"/>
<linearGradient id="SVGID_36_" gradientUnits="userSpaceOnUse" x1="838.5273" y1="407.3447" x2="717.5267" y2="555.2487" gradientTransform="matrix(0.6064 0 0 0.6064 267.8151 208.7751)">
	<stop  offset="0.0021" style="stop-color:#008837"/>
	<stop  offset="0.0464" style="stop-color:#009925"/>
	<stop  offset="0.114" style="stop-color:#00AE11"/>
	<stop  offset="0.1808" style="stop-color:#00BA04"/>
	<stop  offset="0.2452" style="stop-color:#00BE00"/>
	<stop  offset="1" style="stop-color:#005A37"/>
</linearGradient>
<path fill="url(#SVGID_36_)" d="M704.322,548.262c0,0,17.467-72.305,76.549-93.325v5.457c0,0-43.4,27.171-65.432,87.868H704.322z"/>
<linearGradient id="SVGID_37_" gradientUnits="userSpaceOnUse" x1="659.4004" y1="296.5166" x2="756.9153" y2="462.3539" gradientTransform="matrix(0.6064 0 0 0.6064 267.8151 208.7751)">
	<stop  offset="0" style="stop-color:#00BE00"/>
	<stop  offset="1" style="stop-color:#005A37"/>
</linearGradient>
<path fill="url(#SVGID_37_)" d="M780.871,548.262c0,0-66.691-46.93-73.988-89.807c-7.297-42.876-37.656-56.313-37.656-56.313
	s0.746,12.247,13.928,29.949c13.184,17.701,7.156,35.027,29.756,64.405c22.598,29.378,58.756,51.766,58.756,51.766H780.871z"/>
<g>
	
		<linearGradient id="SVGID_38_" gradientUnits="userSpaceOnUse" x1="-32.1694" y1="452.332" x2="-66.3311" y2="416.3076" gradientTransform="matrix(-0.424 0 0 0.424 752.7264 305.6131)">
		<stop  offset="0" style="stop-color:#00BE00"/>
		<stop  offset="1" style="stop-color:#005A37"/>
	</linearGradient>
	<path fill="url(#SVGID_38_)" d="M779.533,477.574c-0.051,1.334-13.072,18.433-13.072,18.433s15.459-5.793,23.359-18.433H779.533z"
		/>
	
		<linearGradient id="SVGID_39_" gradientUnits="userSpaceOnUse" x1="-70.8564" y1="420.5195" x2="-35.4524" y2="528.5944" gradientTransform="matrix(-0.424 0 0 0.424 752.7264 305.6131)">
		<stop  offset="0" style="stop-color:#00BE00"/>
		<stop  offset="1" style="stop-color:#005A37"/>
	</linearGradient>
	<path fill="url(#SVGID_39_)" d="M753.215,547.475c0,0,24.984-24.606,26.318-69.9h10.287c0,0-2.896,47.105-31.074,69.9H753.215z"/>
</g>
<linearGradient id="SVGID_40_" gradientUnits="userSpaceOnUse" x1="709.3252" y1="461.2402" x2="695.8312" y2="554.3716" gradientTransform="matrix(0.6064 0 0 0.6064 397.7848 208.7751)">
	<stop  offset="0" style="stop-color:#00BE00"/>
	<stop  offset="1" style="stop-color:#005A37"/>
</linearGradient>
<path fill="url(#SVGID_40_)" d="M850,547.28c0,0-12.465-40.402-52.217-62.013c0,0,34.43,26.985,46.963,62.013H850z"/>
<linearGradient id="SVGID_41_" gradientUnits="userSpaceOnUse" x1="705.415" y1="309.7305" x2="765.0428" y2="528.9853">
	<stop  offset="0" style="stop-color:#00BE00"/>
	<stop  offset="1" style="stop-color:#005A37"/>
</linearGradient>
<path fill="url(#SVGID_41_)" d="M772.084,545.356c0,0-37.887-87.852-57.764-146.236c-19.875-58.385,0-114.286,0-114.286
	s9.938,32.919,12.422,68.944s28.572,136.572,54.658,191.578H772.084z"/>
<g>
	<path fill="#4B6467" d="M51.016,534.074c0.294,0.126,0.586,0.263,0.968,0.398C51.786,534.338,51.427,534.199,51.016,534.074z"/>
	<path fill="#4B6467" d="M32.66,517.124c-0.262-0.253-0.528-0.509-0.857-0.759C32.02,516.66,32.32,516.905,32.66,517.124z"/>
	<path fill="#4B6467" d="M75.52,524.114c-1.885-0.188-6,0.278-7.397-0.812c0.646-0.383,1.599-0.921,1.699-1.665
		c-0.363-0.179-0.728-0.344-1.097-0.525c-0.514,0.493-1.559,1.32-2.394,1.479c-1.03,0.196-2.171-0.469-3.166-0.62
		c-1.7-0.259-2.924-0.94-4.645-1.211c-2.123-0.334-3.919,0.088-6.02,0.091c2.419-0.029,4.673-0.155,6.926,0.579
		c1.251,0.408,2.196,0.713,3.508,0.97c1.166,0.228,3.304,0.628,4.167,1.127c-0.926,0.471-2.085,0.327-3.067,0.899
		c-1.285,0.75-2.462,1.793-4.295,1.648c-1.545-0.121-2.957-0.27-4.596-0.27c-1.782,0-2.991-0.322-4.627-0.836
		c-1.211-0.381-2.241-1.012-3.482-1.365c-1.641-0.466-3.546-0.199-5.113-0.954c-0.841-0.404-1.333-1.053-2.024-1.557
		c-0.668-0.487-1.918-0.987-1.746-1.779c1.588-0.183,3.131-0.148,4.68-0.431c1.782-0.323,3.634-0.3,5.36-0.738
		c1.562-0.396,3.159-1.379,4.871-1.388c1.507-0.008,2.751,0.577,4.328,0.397c-0.552-0.305-1.694-0.252-2.453-0.517
		c-0.774-0.271-1.018-0.446-2.051-0.4c-2.323,0.103-4.351,1.197-6.339,1.739c-2.477,0.677-5.751,1.001-8.428,1.044
		c-1.085,0.018-1.685-0.033-2.561-0.501c-0.87-0.465-2.028-0.835-2.9-1.396c0.438,0.424,0.856,0.837,1.491,1.186
		c1.008,0.553,4.281,1.729,4.092,2.962c-0.965-0.068-2.048-0.205-3.049-0.328c-0.665-0.081-1.299-0.319-1.991-0.36
		c-0.57-0.034-1.263,0.104-1.825-0.014c-1.28-0.268-1.485-1.274-2.308-1.743c-0.44-0.252-1.336-0.325-1.867-0.526
		c-0.283-0.108-0.515-0.287-0.81-0.39c-2.298-0.804-4.771-1.801-7.271-1.981c-1.733-0.126-3.984,0.291-5.587-0.226
		c1.229,0.509,2.398,0.256,3.759,0.38c1.676,0.152,3.403,0.498,4.98,1.004c2.144,0.688,4.058,1.284,5.85,2.423
		c0.653,0.415,1.441,0.945,2.18,1.276c1.653,0.743,3.476,0.342,5.288,0.62c2.773,0.425,5.769,1.386,8.18,2.378
		c2.13,0.876,4.637,1.855,6.959,2.462c1.286,0.336,2.755,0.109,4.134,0.16c1.485,0.055,2.924,0.547,4.377,0.554
		c-2.595,0.284-4.827,0.948-7.288,1.542c-1.449,0.349-2.993,0.395-4.498,0.565c-1.662,0.188-3.255,0.636-4.952,0.868
		c-3.176,0.437-6.408,1.008-9.607,1.362c-1.239,0.138-1.973,0.649-3.165,0.829c-2.181,0.329-4.969-0.19-7.126-0.408
		c-2.083-0.211-3.791-0.383-5.494-1.243c-1.281-0.646-1.664-0.88-2.936-0.363c-3.285,1.333-6.553,1.869-10.337,1.869l2.151,0.609
		c1.44,0,2.882,0.02,4.322,0c1.812-0.024,2.524-0.637,3.961-1.327c1.851-0.889,3.334,0.758,4.946,1.438
		c0.969,0.409,1.036,0.162,2.15,0.139c1.717-0.036,3.835,0.205,5.696,0.176c-0.354,0.396-0.725,0.298-1.193,0.572
		c-0.546,0.32-0.865,0.729-1.406,1.119c-0.897,0.649-2.022,0.837-3.192,1.019c-1.018,0.157-2.114,0.02-3.137,0.165
		c-1.075,0.152-1.931,0.775-3.071,0.789c0.838,0.034,1.455-0.171,2.242-0.263c1.01-0.117,2.173-0.003,3.188,0
		c1.405,0.004,2.463-0.183,3.678-0.752c1.434-0.672,2.711-2.002,4.269-2.455c1.786-0.52,3.291,0.255,4.84,0.689
		c1.987,0.556,4.428,0.147,6.54,0.275c-1.082,0.05-2.531,1.404-2.585,2.153c0.986-0.006,1.908-1.045,2.82-1.383
		c1.475-0.547,3.084-1.04,4.72-1.138c1.27-0.076,2.735-0.159,3.979-0.157c0.498,0.001,1.478,0.186,2.258,0.423
		c-0.397-0.17-0.798-0.317-1.422-0.392c-0.948-0.112-1.966-0.136-2.99-0.136c-2.679,0-5.357,0.001-8.037,0
		c-2.711-0.001-4.924-0.382-7.578-0.766c1.998-0.486,4.186-0.18,6.263-0.452c2.894-0.378,5.616-1.563,8.601-1.919
		c2.612-0.311,4.835-0.721,7.58-0.361c0.792,0.104,1.473,0.445,2.249,0.546c1.411,0.183,3.631-0.236,4.868-0.627
		c-0.886,0.281-1.981,0.072-2.865-0.122c-1.492-0.329-2.992-0.507-4.536-0.706c0.314-0.499,3.616-0.743,4.495-1.015
		c1.578-0.487,3.413-1.525,5.151-1.362c2.045,0.192,4.055,1.014,6.178,1.133c2.76,0.154,6.402,0.63,9.103,0.104
		c-2.062-0.123-4.168-0.232-6.186-0.376c-1.448-0.104-2.3-0.422-3.591-0.827c-2.042-0.643-4.35-0.128-6.284-0.62
		c0.792-0.507,1.705-0.844,2.624-1.133c0.705-0.222,1.445-0.582,2.125-0.782c1.017-0.298,1.444,0.027,2.476,0.135
		c1.443,0.15,3.016,0.395,4.479,0.365c1.753-0.035,3.297-0.522,5.161-0.521c0.677,0,1.463-0.076,2.115,0.039
		c0.631,0.11,1.333,0.606,2.015,0.539C81.448,523.293,77.665,524.329,75.52,524.114z"/>
</g>
<linearGradient id="SVGID_42_" gradientUnits="userSpaceOnUse" x1="26.9253" y1="269.0029" x2="25.0615" y2="550.0211">
	<stop  offset="0" style="stop-color:#00BE00"/>
	<stop  offset="1" style="stop-color:#005A37"/>
</linearGradient>
<path fill="url(#SVGID_42_)" d="M6.86,550c0,0,16.754-91.579,23.627-159.901S6.86,241.652,6.86,241.652s13.068,3.105,24.869,44.099
	s18.634,61.491,12.422,127.95C38.313,476.175,21.792,550,21.792,550H6.86z"/>
<linearGradient id="SVGID_43_" gradientUnits="userSpaceOnUse" x1="996.7471" y1="417.0928" x2="875.7482" y2="564.9945" gradientTransform="matrix(-0.4754 0 0 0.4754 493.6619 278.0447)">
	<stop  offset="0.0021" style="stop-color:#008837"/>
	<stop  offset="0.0464" style="stop-color:#009925"/>
	<stop  offset="0.114" style="stop-color:#00AE11"/>
	<stop  offset="0.1808" style="stop-color:#00BA04"/>
	<stop  offset="0.2452" style="stop-color:#00BE00"/>
	<stop  offset="1" style="stop-color:#005A37"/>
</linearGradient>
<path fill="url(#SVGID_43_)" d="M76.13,548.702c0,0-13.555-56.528-59.876-73.01v4.278c0,0,34.027,21.303,51.16,68.731H76.13z"/>
<linearGradient id="SVGID_44_" gradientUnits="userSpaceOnUse" x1="439.0508" y1="443.5547" x2="425.5568" y2="536.686" gradientTransform="matrix(-1.5571 0 0 1.8407 765.7498 -445.4394)">
	<stop  offset="0" style="stop-color:#00BE00"/>
	<stop  offset="1" style="stop-color:#005A37"/>
</linearGradient>
<path fill="url(#SVGID_44_)" d="M25.391,549.407c0,0,32.009-122.639,134.083-188.236c0,0-88.407,81.912-120.589,188.236H25.391z"/>
</svg>
