<?xml version="1.0" encoding="utf-8"?>
<!-- Generator: Adobe Illustrator 16.0.4, SVG Export Plug-In . SVG Version: 6.00 Build 0)  -->
<!DOCTYPE svg PUBLIC "-//W3C//DTD SVG 1.1//EN" "http://www.w3.org/Graphics/SVG/1.1/DTD/svg11.dtd">
<svg version="1.1" id="Layer_1" xmlns="http://www.w3.org/2000/svg" xmlns:xlink="http://www.w3.org/1999/xlink" x="0px" y="0px"
	 width="300px" height="280px" viewBox="0 0 300 280" enable-background="new 0 0 300 280" xml:space="preserve">
<path fill="#AA6B00" d="M92.142,240.529h-0.546c-0.468-0.025-1.935,0.26-1.828,0.979c0.081,0.539,2.161,0.941,2.646,0.73
	C93.688,241.686,92.882,240.904,92.142,240.529z"/>
<path fill="#805000" d="M90.268,242.283c-0.13-0.068-0.243-0.357-0.449-0.418c-0.338-0.1-1.004-0.033-1.267,0.068l-0.39,0.545
	c-0.459,0-2.087-0.307-2.207,0.322c-0.127,0.674,1.701,0.719,2.121,0.695c0.79-0.045,1.63,0.055,2.437,0
	c0.488-0.031,0.79-0.062,1.112-0.463C91.292,242.562,90.736,242.529,90.268,242.283z"/>
<path fill="#805000" d="M98.286,246.248c-0.608-0.014-1.127-0.342-1.729-0.416c-0.337-0.041-0.637-0.072-0.982-0.076l-0.625,0.312
	c-0.697,0-2.162-0.275-2.735,0c-1.148,0.553,0.626,1.439,1.338,1.568C94.455,247.799,98.686,247.816,98.286,246.248z"/>
<path fill="#AA6B00" d="M152.134,249.299c-1.543,0.766-0.154,0.834,0.846,0.955c0.885,0.105,1.768,0.26,2.682,0.234l0.311-1.248
	C155.472,248.383,152.817,248.959,152.134,249.299z"/>
<path fill="#805000" d="M306.413,289.531l-0.312,0.547c-0.369-0.082-0.732-0.021-0.867,0.322c0.525,0.615,2.799,0.557,3.057-0.326
	C308.694,288.695,306.974,289.436,306.413,289.531z"/>
<path fill="#7FAE65" d="M219.999,179.355c0,0,20.631-26.295,27.771-44.75c6.879-17.775,14.041-30.924,9.801-40.695
	c-4.242-9.773-16.941-6.598-25.668,10.857c-5.387,10.773-18.623,50.674-20.34,68.916
	C210.501,184.998,219.999,179.355,219.999,179.355z"/>
<path fill="#7FAE65" d="M215.028,180.75c0,0,21.203,33.885,21.912,35.518c0.707,1.635-5.387,9.908,4.383,15.242
	c6.307,3.441,10.721-0.789,10.609-6.053c-0.146-6.76-10.318-9.189-10.318-9.189s-16.66-29.672-11.902-30.287
	c4.762-0.611,30.91,22.133,30.91,22.133s-1.271,11.732,8.766,12.963c5.732,0.703,13.809,0.912,11.9-4.809
	c-1.408-4.227-15.074-8.154-15.074-8.154s-33.947-28.537-29.273-28.814s36.414,11.32,36.414,11.32s15.076-0.305,18.252,0
	c3.174,0.303,4.76-10.248,0-11.32c-4.764-1.072-17.457,6.682-17.457,6.682l-45.166-19.818L215.028,180.75z"/>
<path fill="#7FAE65" d="M167.337,163.283c0,0,46.096-6.48,68.723-24.595c17.928-14.35,30.154-41.397,19.049-49.331
	c-20.059-14.334-49.723,21.939-60.354,35.912C187.659,134.596,167.337,163.283,167.337,163.283z"/>
<path fill="#7FAE65" d="M131.931,162.992c0,0-41.205,10.85-63.564-7.6c-17.711-14.615-28.516-45.137-17.293-52.908
	c20.27-14.031,35.641,12.488,50.979,30.145C115.271,147.848,131.931,162.992,131.931,162.992z"/>
<path fill="#7FAE65" d="M85.65,163.283c0,0-22.181,39.281-22.924,40.898c-0.742,1.615-0.99,11.438-8.966,14.93
	c-6.583,2.885-8.061-3.492-6.219-6.068c3.929-5.5,10.511-8.963,10.511-8.963s17.301-29.307,12.554-30.023
	c-4.747-0.715-33.53,23.844-33.53,23.844s-0.93,3.291-6.512,8.736c-4.137,4.033-13.493,2.791-12.177-3.414
	c1.651-7.779,15.249-7.83,15.249-7.83s34.557-27.797,29.889-28.174s-36.65,10.531-36.65,10.531s-15.066-0.629-18.246-0.395
	c-3.18,0.236-4.538-10.35,0.244-11.318c4.783-0.969,17.31,7.061,17.31,7.061l50.212-20.754L85.65,163.283z"/>
<ellipse transform="matrix(0.9998 0.0187 -0.0187 0.9998 2.1862 -2.7667)" fill="#CEE6BD" cx="149.067" cy="115.539" rx="63.412" ry="50.929"/>
<path fill="#7FAE65" d="M110.253,44.91c-6.611,6.492-31.684-18.371-41.609,19.695c-4.266,16.355,52.016,43.555,82.486,42.379
	c30.43-1.174,79.408-31.006,76.33-44.672c-5.68-25.182-40.213-17.711-40.213-17.711s-24.529-20.04-42.551-18.396
	C133.025,27.27,117.244,38.043,110.253,44.91z"/>
<path fill="#BEDEA8" d="M225.198,57.287c-17.803-5.365-10.371,16.678-30.74,17.539c-35.551,1.502-24.961-15.629-46.453-14.568
	c-17.906,0.885-27.779,22.564-52.632,12.088c-5.719-2.41-11.838-6.705-13.162-10.406c-0.967-2.695-3.773-4.887-7.94-3.906
	c-4.422,1.041-5.569,6.203-5.847,8.283c-2.043,15.375,52.004,42.543,82.476,41.369c30.43-1.174,76.102-29.748,76.695-43.746
	C227.733,60.711,226.056,58.979,225.198,57.287z"/>
<circle fill="#519535" cx="102.847" cy="34.794" r="20.63"/>
<circle fill="#519535" cx="184.628" cy="37.02" r="20.631"/>
<path fill="#ACD591" d="M145.271,210.867c9.918-3.836,11.137-4.047,19.176-8.217c12.174-6.318,19.795-8.143,19.795-8.143
	l12.115,6.117c0,0,0,0-2.76,20.186c-2.762,20.188,0.689,43.471-6.213,45.525c-6.906,2.055-13.809-1.371-10.357-7.531
	c3.451-6.164,11.736-34.213,9.666-37.994c-2.072-3.781-0.467-5.312-8.299,1.178c-7.828,6.494-21.68,26.799-25.236,31.172
	c-5.449,6.701-15.818,6.98-15.146-1.229c0.5-6.119,6.302-8.541,11.056-7.609c4.605,0.9,25.854-29.682,21.215-33.963
	c-1.936-1.789-20.178,4.646-28.462,10.451c-8.284,5.807-14.497,6.186-14.497,0C127.324,210.867,133.39,215.463,145.271,210.867z"/>
<path fill="#ACD591" d="M179.782,197.9c0,0,22.289-24.697,22.289-42.486c0-10.18,8.229-19.621,17.289-15.595
	c9.057,4.023,4.26,25.525-2.229,37.505c-6.49,11.98-23.729,25.59-23.729,25.59L179.782,197.9z"/>
<path fill="#ACD591" d="M192.938,134.605c4.844,3.458,7.197,9.021,10.391,13.941c1.516,2.336,20.58-2.154,20.58-2.154
	s-12.164-33.387-20.971-39.629c-7.637-5.412-14.613-5.541-18.787-3.348C170.007,110.846,185.462,129.27,192.938,134.605z"/>
<circle fill="#E1F2FC" cx="184.15" cy="39.676" r="17.138"/>
<circle fill="#FFFFFF" cx="182.436" cy="37.235" r="14.456"/>
<path fill="#ACD591" d="M88.25,128.15c4.071-14.619,6.626-18.047,13.622-22.799c6.996-4.754,18.172-0.895,18.172,13.119
	c0,9.52-19.355,44.611-25.328,44.812C85.978,163.58,84.023,143.328,88.25,128.15z"/>
<path fill="#ACD591" d="M84.719,183.32c0,0-15.95,32.559-18.331,36.525c-2.381,3.965-13.492,3.074-8.785,13.846
	c3.186,7.285,16.736,2.418,15.299-4.721c-1.438-7.146,11.678-34.262,15.49-35.361c4.24-1.225,3.322,36.973-2.286,40.346
	c-7.96,4.783-0.009,14.281,6.45,14.811c5.934,0.488,10.413-7.932,5.652-15.867c-4.762-7.936-0.067-43.916,1.949-43.383
	c2.018,0.533,10.746,12.438,9.953,20.369c-0.793,7.936-2.167,19.838,4.471,17.459c6.639-2.381,7.412-4.975,6.639-11.035
	c-1.176-9.209-15.358-26.268-22.264-40.844c-4.648-9.812,0.402-31.619,0.402-31.619s-5.317-3.513-6.928-2.602
	C83.125,146.512,84.719,183.32,84.719,183.32z"/>
<path fill="#519535" d="M80.999,56.818c0,0,0.016,0.15,0.047,0.443c0.011,0.148,0.04,0.328,0.078,0.539
	c0.032,0.213,0.084,0.457,0.151,0.73c0.248,1.096,0.859,2.648,2.068,4.328c0.602,0.838,1.369,1.691,2.283,2.533
	c0.455,0.422,0.958,0.828,1.48,1.246c0.537,0.4,1.096,0.811,1.703,1.191c2.412,1.549,5.408,2.857,8.805,3.76
	c3.396,0.906,7.212,1.361,11.215,1.219c4.004-0.131,8.191-0.912,12.293-2.361c4.105-1.447,8.102-3.6,11.789-6.316
	c0.467-0.328,0.912-0.695,1.369-1.041l0.734-0.566c0.266-0.193,0.553-0.4,0.824-0.588c1.08-0.738,2.227-1.396,3.428-1.951
	c2.395-1.117,5.026-1.828,7.724-2.012c2.697-0.176,5.445,0.232,7.973,1.148c1.266,0.457,2.475,1.037,3.607,1.717l0.424,0.254
	l0.414,0.273c0.273,0.18,0.549,0.359,0.809,0.557c0.262,0.195,0.535,0.379,0.781,0.586l0.73,0.586l0.693,0.564
	c0.232,0.188,0.465,0.379,0.686,0.545c0.447,0.344,0.883,0.691,1.35,1.023l0.686,0.506l0.695,0.488
	c0.463,0.328,0.939,0.633,1.408,0.939c1.887,1.227,3.844,2.277,5.816,3.195c3.957,1.805,8.051,2.945,12.014,3.328
	c3.959,0.396,7.775,0.066,11.154-0.803c1.699-0.422,3.277-1,4.736-1.65c1.461-0.652,2.789-1.4,3.969-2.209
	c2.355-1.623,4.125-3.447,5.281-5.164c0.582-0.855,1.02-1.678,1.34-2.42c0.32-0.744,0.516-1.408,0.648-1.957
	c0.125-0.549,0.191-0.979,0.223-1.27s0.045-0.443,0.045-0.443s0.008,0.152,0.02,0.445c0.01,0.15,0.002,0.332-0.002,0.551
	c0.002,0.219-0.023,0.471-0.047,0.758c-0.125,1.135-0.471,2.842-1.512,4.766c-0.512,0.959-1.174,1.979-2.006,3.002
	c-0.422,0.508-0.873,1.027-1.383,1.523c-0.248,0.258-0.521,0.496-0.787,0.752c-0.281,0.24-0.557,0.498-0.855,0.734
	c-1.176,0.975-2.521,1.898-4.021,2.738c-1.504,0.836-3.166,1.57-4.959,2.17c-0.896,0.307-1.828,0.566-2.785,0.787
	c-0.961,0.23-1.949,0.408-2.961,0.553c-2.025,0.285-4.148,0.373-6.324,0.281c-4.354-0.195-8.898-1.244-13.273-3.068
	c-2.186-0.914-4.336-2.008-6.404-3.277c-0.518-0.32-1.039-0.635-1.545-0.977L162.864,69l-0.754-0.525
	c-0.5-0.346-0.998-0.729-1.5-1.102c-0.256-0.188-0.484-0.373-0.719-0.557l-0.703-0.555l-0.674-0.525
	c-0.213-0.172-0.441-0.316-0.66-0.479c-0.221-0.16-0.451-0.305-0.678-0.449l-0.344-0.219l-0.352-0.203
	c-0.936-0.537-1.91-0.996-2.92-1.355c-2.018-0.721-4.166-1.025-6.305-0.881c-2.141,0.137-4.274,0.688-6.257,1.604
	c-0.988,0.457-1.948,0.988-2.862,1.592c-0.227,0.148-0.428,0.291-0.65,0.445l-0.697,0.521c-0.502,0.367-0.988,0.754-1.5,1.105
	c-2.021,1.441-4.135,2.729-6.318,3.814c-1.084,0.559-2.195,1.047-3.303,1.514c-1.119,0.447-2.238,0.861-3.373,1.213
	c-4.52,1.434-9.112,2.068-13.439,1.992c-4.329-0.076-8.391-0.828-11.945-2.051c-0.889-0.309-1.748-0.633-2.572-0.996
	c-0.826-0.352-1.617-0.738-2.371-1.143c-1.506-0.812-2.875-1.693-4.078-2.631c-2.426-1.848-4.162-3.932-5.244-5.822
	c-1.094-1.898-1.486-3.6-1.607-4.736c-0.015-0.143-0.028-0.277-0.041-0.404c-0.01-0.127-0.01-0.244-0.014-0.354
	c-0.008-0.221-0.012-0.402-0.002-0.549C80.993,56.971,80.999,56.818,80.999,56.818z"/>
<circle fill="#E1F2FC" cx="102.847" cy="37.992" r="17.197"/>
<circle fill="#FFFFFF" cx="102.846" cy="34.794" r="14.454"/>
<ellipse fill="#4A7D33" cx="126.924" cy="148.547" rx="3.267" ry="2.859"/>
<ellipse fill="#4A7D33" cx="148.735" cy="155.414" rx="4.422" ry="3.869"/>
<path fill="#4A7D33" d="M173.706,151.545c0,1.656-1.535,2.998-3.424,2.998c-1.893,0-3.428-1.342-3.428-2.998
	s1.535-2.998,3.428-2.998C172.171,148.547,173.706,149.889,173.706,151.545z"/>
<ellipse fill="#4A7D33" cx="156.714" cy="132.887" rx="1.965" ry="1.719"/>
<ellipse transform="matrix(0.9506 -0.3105 0.3105 0.9506 -29.8103 23.2345)" fill="#519535" cx="58.082" cy="105.261" rx="6.369" ry="4.832"/>
<ellipse transform="matrix(0.9545 0.2983 -0.2983 0.9545 39.257 -70.1458)" fill="#519535" cx="249.414" cy="93.526" rx="6.694" ry="5.076"/>
<path fill="#519535" d="M30.494,172.322c-1.271-0.805-15.15-9.486-20.605-8.381c-5.721,1.158-4.096,13.816-0.293,13.535
	c3.285-0.242,17.176,0.285,20.898,0.434V172.322z"/>
<path fill="#519535" d="M30.768,207.551c-4.553,3.426-9.923,3.807-11.994,0.846c-2.069-2.957-0.056-8.135,4.498-11.564
	c4.554-3.43,9.924-3.811,11.994-0.852C37.336,198.941,35.323,204.121,30.768,207.551z"/>
<path fill="#519535" d="M58.505,216.428c-3.586,4.078-8.396,5.404-10.741,2.957c-2.347-2.447-1.342-7.74,2.245-11.818
	c3.586-4.082,8.396-5.408,10.741-2.959C63.098,207.053,62.091,212.346,58.505,216.428z"/>
<path fill="#519535" d="M273.04,186.377c1.273-0.805,15.15-9.486,20.607-8.381c5.721,1.156,4.094,13.814,0.293,13.535
	c-3.285-0.242-16.863-1.062-20.586-0.912L273.04,186.377z"/>
<path fill="#519535" d="M269.856,222.086c6.219,1.291,11.508-0.629,11.812-4.287c0.307-3.658-4.486-7.672-10.707-8.963
	c-6.223-1.291-11.512,0.629-11.814,4.289C258.841,216.781,263.638,220.793,269.856,222.086z"/>
<path fill="#519535" d="M238.612,229.574c5.014,4.131,11.742,5.471,15.023,2.994c3.279-2.479,1.873-7.836-3.141-11.969
	c-5.018-4.133-11.742-5.473-15.023-2.994C232.19,220.082,233.595,225.441,238.612,229.574z"/>
</svg>
