<?xml version="1.0" encoding="utf-8"?>
<!-- Generator: Adobe Illustrator 16.0.4, SVG Export Plug-In . SVG Version: 6.00 Build 0)  -->
<!DOCTYPE svg PUBLIC "-//W3C//DTD SVG 1.1//EN" "http://www.w3.org/Graphics/SVG/1.1/DTD/svg11.dtd">
<svg version="1.1" id="Layer_1" xmlns="http://www.w3.org/2000/svg" xmlns:xlink="http://www.w3.org/1999/xlink" x="0px" y="0px"
	 width="106px" height="70px" viewBox="0 0 106 70" enable-background="new 0 0 106 70" xml:space="preserve">
<g>
	<circle fill="#231F20" cx="65.6" cy="29.161" r="14.238"/>
	
		<ellipse transform="matrix(0.9948 -0.1018 0.1018 0.9948 -3.4882 3.9217)" fill="#ED1C24" stroke="#ED1C24" stroke-width="0.3497" stroke-miterlimit="10" cx="36.663" cy="36.122" rx="31.25" ry="27.474"/>
	
		<ellipse transform="matrix(0.9992 0.0401 -0.0401 0.9992 1.5351 -2.2671)" fill="#231F20" cx="57.338" cy="37.173" rx="4.51" ry="3.651"/>
	
		<ellipse transform="matrix(0.9992 0.04 -0.04 0.9992 0.7044 -1.8951)" fill="#231F20" cx="47.71" cy="16.656" rx="4.51" ry="3.651"/>
	
		<ellipse transform="matrix(0.9992 0.04 -0.04 0.9992 1.0023 -0.6375)" fill="#231F20" cx="16.432" cy="24.729" rx="4.51" ry="3.65"/>
	
		<ellipse transform="matrix(0.9992 0.0399 -0.0399 0.9992 1.9212 -0.8501)" fill="#231F20" cx="22.235" cy="47.656" rx="4.511" ry="3.652"/>
	
		<ellipse transform="matrix(0.9992 0.0399 -0.0399 0.9992 2.0157 -1.6157)" fill="#231F20" cx="41.511" cy="49.724" rx="5.266" ry="4.064"/>
	
		<ellipse transform="matrix(0.9898 -0.1426 0.1426 0.9898 -1.7857 4.3729)" fill="#231F20" cx="29.607" cy="14.641" rx="5.266" ry="3.105"/>
	<path fill="#231F20" d="M78.219,27.733c0,0,15.339-0.416,21.352,6.636c0.527,0.619,1.595,2.141,1.408,2.932
		c-0.229,0.961-2.154,2.587-3.127,2.413c-0.918-0.163-2.166-1.871-2.551-2.722c-3.93-8.668-17.705-7.773-17.705-7.773L78.219,27.733
		z"/>
	<path fill="#231F20" d="M76.808,23.257c0,0,15.085-2.81,19.484-10.966c0.386-0.715,1.111-2.426,0.762-3.161
		c-0.423-0.891-2.648-2.078-3.562-1.704c-0.862,0.352-1.727,2.284-1.925,3.195c-2.023,9.301-15.68,11.314-15.68,11.314
		L76.808,23.257z"/>
	
		<path fill="none" stroke="#231F20" stroke-width="2.6319" stroke-linecap="round" stroke-linejoin="bevel" stroke-miterlimit="10" d="
		M7.183,44.727c4.656-5.802,11.641-9.185,18.294-12.161c7.196-3.22,14.786-5.556,22.538-7.006c6.366-1.19,12.943-1.725,19.366-0.634
		"/>
</g>
</svg>
