<?xml version="1.0" encoding="utf-8"?>
<!-- Generator: Adobe Illustrator 16.0.4, SVG Export Plug-In . SVG Version: 6.00 Build 0)  -->
<!DOCTYPE svg PUBLIC "-//W3C//DTD SVG 1.1//EN" "http://www.w3.org/Graphics/SVG/1.1/DTD/svg11.dtd">
<svg version="1.1" id="Layer_1" xmlns="http://www.w3.org/2000/svg" xmlns:xlink="http://www.w3.org/1999/xlink" x="0px" y="0px"
	 width="75px" height="25px" viewBox="0 0 75 25" enable-background="new 0 0 75 25" xml:space="preserve">
<g>
	<g>
		<path fill="#47B5B7" d="M27.178,12.523c0-0.64,2.29-1.582,5.903-2.022c-3.552,0.298-6.445,0.987-6.445,2.022
			c0,1.043,2.925,1.732,6.504,2.029C29.493,14.115,27.178,13.167,27.178,12.523z"/>
		<path fill="#47B5B7" d="M47.838,12.523c0-1.035-2.895-1.725-6.447-2.022c3.615,0.44,5.904,1.383,5.904,2.022
			c0,0.644-2.312,1.592-5.963,2.029C44.912,14.256,47.838,13.566,47.838,12.523z"/>
	</g>
	<g>
		<path fill="#47B5B7" d="M21.393,12.523c0-1.167,3.444-2.962,8.914-3.854c-5.586,0.586-10.086,1.898-10.086,3.854
			c0,1.957,4.5,3.269,10.086,3.854C24.837,15.486,21.393,13.69,21.393,12.523z"/>
		<path fill="#47B5B7" d="M54.25,12.523c0-1.956-4.498-3.269-10.084-3.854c5.471,0.893,8.914,2.688,8.914,3.854
			s-3.443,2.963-8.914,3.854C49.752,15.792,54.25,14.48,54.25,12.523z"/>
	</g>
	<g>
		<path fill="#47B5B7" d="M13.592,12.523c0-1.619,4.207-4.019,11.052-5.469c-7.208,1.011-12.638,2.903-12.638,5.469
			s5.43,4.459,12.638,5.469C17.799,16.542,13.592,14.144,13.592,12.523z"/>
		<path fill="#47B5B7" d="M62.467,12.523c0-2.565-5.43-4.458-12.639-5.469c6.846,1.45,11.051,3.85,11.051,5.469
			c0,1.62-4.205,4.019-11.051,5.469C57.037,16.982,62.467,15.089,62.467,12.523z"/>
	</g>
	<g>
		<path fill="#47B5B7" d="M4.679,12.523c0-3.066,7.15-6.608,17.407-8.5c-11.48,1.513-19.229,4.712-19.229,8.5
			c0,3.789,7.749,6.988,19.229,8.5C11.83,19.132,4.679,15.59,4.679,12.523z"/>
		<path fill="#47B5B7" d="M71.617,12.523c0-3.788-7.75-6.987-19.23-8.5c10.256,1.892,17.408,5.434,17.408,8.5
			s-7.152,6.608-17.408,8.5C63.867,19.512,71.617,16.312,71.617,12.523z"/>
	</g>
</g>
</svg>